<svg id="svg" version="1.1" xmlns="http://www.w3.org/2000/svg" xmlns:xlink="http://www.w3.org/1999/xlink" width="400" height="400" viewBox="0, 0, 400,400"><g id="svgg"><path id="path0" d="M0.000 200.000 L 0.000 400.000 200.000 400.000 L 400.000 400.000 400.000 200.000 L 400.000 0.000 200.000 0.000 L 0.000 0.000 0.000 200.000 M118.944 144.998 C 120.511 145.768,122.227 147.479,122.993 149.035 C 123.600 150.266,123.600 150.271,123.600 163.467 C 123.600 178.461,123.686 177.844,121.270 180.235 C 116.888 184.574,108.938 182.814,107.122 177.103 C 106.435 174.945,106.435 151.989,107.122 149.831 C 108.540 145.370,114.634 142.879,118.944 144.998 M250.302 144.739 C 251.705 145.876,251.727 147.043,250.397 150.007 C 249.969 150.960,249.476 152.218,249.301 152.803 C 249.126 153.388,248.840 153.867,248.667 153.867 C 248.493 153.867,248.208 153.388,248.032 152.803 C 247.857 152.218,247.364 150.960,246.936 150.007 C 245.290 146.338,245.912 144.279,248.667 144.279 C 249.280 144.279,249.975 144.474,250.302 144.739 M272.903 144.733 C 272.980 144.990,274.791 153.180,276.928 162.933 C 279.066 172.687,280.879 180.877,280.958 181.133 C 281.064 181.474,281.385 181.600,282.151 181.600 C 282.728 181.600,283.200 181.720,283.200 181.867 C 283.200 182.034,281.556 182.133,278.800 182.133 C 274.821 182.133,272.704 181.768,275.415 181.549 L 276.430 181.467 275.346 176.400 L 274.261 171.333 270.522 171.260 L 266.784 171.186 265.709 176.326 L 264.635 181.467 265.651 181.549 C 267.749 181.718,266.576 182.133,264.000 182.133 C 261.192 182.133,260.575 181.825,262.401 181.333 C 264.028 180.895,264.009 180.959,267.708 163.467 C 269.615 154.447,271.311 146.437,271.477 145.667 C 271.788 144.216,272.592 143.690,272.903 144.733 M77.731 158.400 C 79.514 165.807,81.030 172.032,81.098 172.234 C 81.166 172.435,82.340 167.155,83.705 160.500 C 85.071 153.845,86.369 147.590,86.590 146.600 L 86.991 144.800 90.296 144.800 C 92.321 144.800,93.600 144.903,93.600 145.067 C 93.600 145.213,93.120 145.333,92.533 145.333 L 91.467 145.333 91.467 163.467 L 91.467 181.600 92.533 181.600 C 93.120 181.600,93.600 181.720,93.600 181.867 C 93.600 182.034,91.956 182.133,89.200 182.133 C 86.444 182.133,84.800 182.034,84.800 181.867 C 84.800 181.720,85.280 181.600,85.867 181.600 L 86.933 181.600 86.902 165.267 C 86.885 156.283,86.813 149.173,86.741 149.467 C 86.554 150.231,80.000 181.878,80.000 182.017 C 80.000 182.081,79.765 182.133,79.477 182.133 C 78.842 182.133,79.266 183.676,74.927 165.600 C 73.008 157.607,71.394 150.947,71.340 150.800 C 71.286 150.653,71.233 157.523,71.221 166.067 L 71.200 181.600 72.267 181.600 C 72.853 181.600,73.333 181.720,73.333 181.867 C 73.333 182.027,72.267 182.133,70.667 182.133 C 68.071 182.133,67.169 181.808,68.733 181.436 C 70.514 181.013,70.400 182.244,70.400 163.467 C 70.400 144.689,70.514 145.921,68.733 145.497 C 66.972 145.079,68.122 144.786,71.244 144.858 L 74.489 144.933 77.731 158.400 M114.472 144.983 C 113.524 145.174,112.135 147.035,111.576 148.865 C 110.792 151.432,110.797 175.516,111.582 178.087 C 113.138 183.184,117.296 183.264,118.851 178.227 C 119.585 175.853,119.585 151.081,118.851 148.707 C 118.065 146.160,116.258 144.623,114.472 144.983 M155.733 148.533 C 155.733 152.855,155.284 153.677,154.719 150.387 C 154.074 146.622,153.089 145.519,150.243 145.375 L 148.267 145.275 148.267 163.438 L 148.267 181.600 149.333 181.600 C 149.920 181.600,150.400 181.720,150.400 181.867 C 150.400 182.034,148.756 182.133,146.000 182.133 C 143.244 182.133,141.600 182.034,141.600 181.867 C 141.600 181.720,142.080 181.600,142.667 181.600 L 143.733 181.600 143.733 163.467 L 143.733 145.333 141.933 145.334 C 138.891 145.336,137.426 146.942,137.129 150.600 C 137.035 151.763,136.884 152.267,136.630 152.267 C 136.341 152.267,136.267 151.507,136.267 148.533 L 136.267 144.800 146.000 144.800 L 155.733 144.800 155.733 148.533 M175.733 145.067 C 175.733 145.213,175.253 145.333,174.667 145.333 L 173.600 145.333 173.600 163.467 L 173.600 181.600 174.667 181.600 C 175.253 181.600,175.733 181.720,175.733 181.867 C 175.733 182.034,174.089 182.133,171.333 182.133 C 168.578 182.133,166.933 182.034,166.933 181.867 C 166.933 181.720,167.413 181.600,168.000 181.600 L 169.067 181.600 169.067 163.467 L 169.067 145.333 168.000 145.333 C 167.413 145.333,166.933 145.213,166.933 145.067 C 166.933 144.900,168.578 144.800,171.333 144.800 C 174.089 144.800,175.733 144.900,175.733 145.067 M194.933 145.067 C 194.933 145.213,194.440 145.333,193.838 145.333 C 193.077 145.333,192.779 145.435,192.860 145.667 C 192.925 145.850,194.282 151.965,195.877 159.257 C 197.471 166.548,198.808 172.481,198.847 172.442 C 198.948 172.341,204.533 146.012,204.533 145.639 C 204.533 145.460,204.091 145.333,203.467 145.333 C 202.880 145.333,202.400 145.213,202.400 145.067 C 202.400 144.906,203.511 144.800,205.200 144.800 C 208.132 144.800,208.697 145.040,206.977 145.555 C 205.204 146.087,205.318 145.700,201.287 164.759 C 197.730 181.573,197.460 182.685,196.954 182.612 C 196.466 182.541,196.068 180.958,192.751 165.867 C 190.737 156.700,188.895 148.330,188.659 147.267 L 188.230 145.333 187.182 145.333 C 186.605 145.333,186.133 145.213,186.133 145.067 C 186.133 144.900,187.778 144.800,190.533 144.800 C 193.289 144.800,194.933 144.900,194.933 145.067 M233.867 148.533 C 233.867 152.855,233.417 153.677,232.853 150.387 C 232.154 146.311,231.297 145.498,227.573 145.376 L 224.800 145.285 224.800 154.242 L 224.800 163.200 226.412 163.200 C 228.601 163.200,229.857 161.818,229.865 159.400 C 229.866 159.143,230.047 158.933,230.267 158.933 C 230.607 158.933,230.667 159.615,230.667 163.467 C 230.667 167.319,230.607 168.000,230.267 168.000 C 230.047 168.000,229.866 167.790,229.865 167.533 C 229.857 165.116,228.601 163.733,226.412 163.733 L 224.800 163.733 224.800 172.691 L 224.800 181.649 227.573 181.558 C 231.297 181.435,232.154 180.622,232.853 176.547 C 233.417 173.257,233.867 174.078,233.867 178.400 L 233.867 182.133 226.000 182.133 C 220.933 182.133,218.133 182.038,218.133 181.867 C 218.133 181.720,218.613 181.600,219.200 181.600 L 220.267 181.600 220.267 163.467 L 220.267 145.333 219.200 145.333 C 218.613 145.333,218.133 145.213,218.133 145.067 C 218.133 144.895,220.933 144.800,226.000 144.800 L 233.867 144.800 233.867 148.533 M312.267 148.533 C 312.267 151.505,312.193 152.267,311.904 152.267 C 311.654 152.267,311.496 151.771,311.397 150.682 C 311.058 146.942,309.599 145.333,306.547 145.333 L 304.800 145.333 304.800 163.467 L 304.800 181.600 305.867 181.600 C 306.453 181.600,306.933 181.720,306.933 181.867 C 306.933 182.034,305.289 182.133,302.533 182.133 C 299.778 182.133,298.133 182.034,298.133 181.867 C 298.133 181.720,298.613 181.600,299.200 181.600 L 300.267 181.600 300.267 163.438 L 300.267 145.275 298.284 145.375 C 295.428 145.519,294.190 146.975,293.727 150.733 C 293.335 153.918,292.800 152.648,292.800 148.533 L 292.800 144.800 302.533 144.800 L 312.267 144.800 312.267 148.533 M339.200 148.533 C 339.200 150.587,339.094 152.267,338.964 152.267 C 338.680 152.267,338.409 151.335,338.404 150.343 C 338.387 147.028,336.728 145.491,333.046 145.376 L 330.133 145.286 330.133 154.243 L 330.133 163.200 331.807 163.200 C 334.278 163.200,334.685 162.791,335.326 159.667 C 335.729 157.706,336.000 159.236,336.000 163.467 C 336.000 167.697,335.729 169.227,335.326 167.267 C 334.685 164.142,334.278 163.733,331.807 163.733 L 330.133 163.733 330.133 172.690 L 330.133 181.647 333.046 181.557 C 336.728 181.443,338.387 179.905,338.404 176.590 C 338.409 175.598,338.680 174.667,338.964 174.667 C 339.094 174.667,339.200 176.347,339.200 178.400 L 339.200 182.133 331.467 182.133 C 326.489 182.133,323.733 182.038,323.733 181.867 C 323.733 181.720,324.213 181.600,324.800 181.600 L 325.867 181.600 325.867 163.467 L 325.867 145.333 324.800 145.333 C 324.213 145.333,323.733 145.213,323.733 145.067 C 323.733 144.895,326.489 144.800,331.467 144.800 L 339.200 144.800 339.200 148.533 M270.311 154.933 C 270.227 155.153,269.484 158.513,268.660 162.400 C 267.836 166.287,267.097 169.737,267.018 170.067 C 266.876 170.667,266.876 170.667,270.522 170.667 C 273.872 170.667,274.158 170.629,274.027 170.200 C 273.949 169.943,273.158 166.433,272.268 162.400 C 270.441 154.112,270.515 154.394,270.311 154.933 M347.733 208.400 L 347.733 209.600 201.200 209.600 L 54.667 209.600 54.667 208.400 L 54.667 207.200 201.200 207.200 L 347.733 207.200 347.733 208.400 M119.878 235.850 C 120.714 236.397,120.944 237.357,120.461 238.279 C 120.115 238.939,120.126 239.059,120.572 239.506 C 122.406 241.340,120.698 242.933,116.897 242.933 L 114.133 242.933 114.133 239.027 L 114.133 235.122 116.682 235.274 C 118.340 235.373,119.457 235.574,119.878 235.850 M130.884 236.067 L 130.969 236.800 128.951 236.800 L 126.933 236.800 126.933 237.600 L 126.933 238.400 128.667 238.400 L 130.400 238.400 130.400 239.200 L 130.400 240.000 128.667 240.000 C 126.996 240.000,126.933 240.024,126.933 240.667 C 126.933 241.319,126.978 241.333,128.933 241.333 L 130.933 241.333 130.933 242.133 L 130.933 242.933 128.000 242.933 L 125.067 242.933 125.067 239.058 L 125.067 235.182 127.933 235.258 L 130.800 235.333 130.884 236.067 M140.376 235.573 C 141.575 236.074,141.774 236.478,141.134 237.118 C 140.628 237.624,140.562 237.628,139.748 237.208 C 138.080 236.345,136.412 237.341,136.412 239.200 C 136.412 241.062,137.885 241.908,139.795 241.144 C 141.710 240.378,142.344 241.822,140.467 242.674 C 138.978 243.350,137.968 243.331,136.543 242.600 C 131.910 240.224,135.548 233.555,140.376 235.573 M151.324 239.133 L 153.022 242.933 152.010 242.933 C 151.137 242.933,150.953 242.823,150.667 242.133 C 150.348 241.365,150.270 241.333,148.660 241.333 C 147.039 241.333,146.977 241.359,146.707 242.133 C 146.467 242.820,146.293 242.933,145.481 242.933 C 144.314 242.933,144.257 243.311,146.034 239.275 C 148.517 233.634,148.863 233.625,151.324 239.133 M158.176 237.987 C 158.275 241.039,158.449 241.422,159.733 241.422 C 161.000 241.422,161.188 241.026,161.333 238.055 L 161.467 235.333 162.333 235.250 L 163.200 235.166 163.200 238.009 C 163.200 242.027,162.113 243.482,159.386 243.116 C 157.013 242.798,156.276 241.614,156.271 238.111 C 156.266 235.294,156.301 235.200,157.354 235.200 L 158.085 235.200 158.176 237.987 M171.960 235.493 C 172.791 235.782,173.011 236.321,172.578 237.003 C 172.415 237.261,172.169 237.272,171.534 237.050 C 170.298 236.619,169.200 236.815,169.200 237.467 C 169.200 237.869,169.496 238.087,170.400 238.354 C 172.852 239.077,173.576 239.798,173.231 241.173 C 172.751 243.085,169.363 243.806,167.256 242.445 C 166.369 241.871,167.360 240.783,168.381 241.209 C 169.593 241.716,170.779 241.707,171.209 241.189 C 171.664 240.640,171.373 240.413,169.551 239.894 C 167.169 239.215,166.369 237.856,167.503 236.414 C 168.438 235.226,170.169 234.868,171.960 235.493 M182.884 236.067 L 182.969 236.800 180.951 236.800 L 178.933 236.800 178.933 237.600 L 178.933 238.400 180.667 238.400 L 182.400 238.400 182.400 239.200 L 182.400 240.000 180.667 240.000 C 178.996 240.000,178.933 240.024,178.933 240.667 C 178.933 241.319,178.978 241.333,180.933 241.333 L 182.933 241.333 182.933 242.133 L 182.933 242.933 180.000 242.933 L 177.067 242.933 177.067 239.058 L 177.067 235.182 179.933 235.258 L 182.800 235.333 182.884 236.067 M195.467 237.467 C 197.113 240.192,196.753 240.194,198.409 237.452 C 199.638 235.417,199.864 235.179,200.494 235.252 L 201.200 235.333 201.274 239.133 L 201.348 242.933 200.419 242.933 L 199.489 242.933 199.411 240.907 L 199.333 238.880 198.400 240.504 C 197.158 242.664,196.694 242.658,195.395 240.467 L 194.407 238.800 194.404 240.867 L 194.400 242.933 193.467 242.933 L 192.533 242.933 192.533 239.244 C 192.533 235.315,192.561 235.200,193.493 235.200 C 193.966 235.200,194.395 235.692,195.467 237.467 M211.009 235.566 C 214.092 236.880,214.166 241.297,211.128 242.676 C 207.407 244.365,203.708 240.812,205.561 237.329 C 206.515 235.536,209.029 234.722,211.009 235.566 M223.067 236.133 C 223.067 236.884,222.997 236.938,221.933 237.015 L 220.800 237.097 220.800 240.015 L 220.800 242.933 219.867 242.933 L 218.933 242.933 218.933 240.000 L 218.933 237.067 217.733 237.067 C 216.538 237.067,216.533 237.063,216.533 236.125 L 216.533 235.184 219.800 235.258 L 223.067 235.333 223.067 236.133 M228.474 239.133 L 228.548 242.933 227.474 242.933 L 226.400 242.933 226.400 239.244 C 226.400 235.201,226.418 235.139,227.590 235.254 L 228.400 235.333 228.474 239.133 M233.789 235.533 C 233.930 235.717,234.446 236.857,234.937 238.067 C 236.035 240.769,235.917 240.783,237.205 237.800 C 238.210 235.472,238.318 235.329,239.135 235.250 C 240.270 235.140,240.266 235.160,238.467 239.351 L 236.933 242.923 235.970 242.928 C 235.053 242.933,234.973 242.860,234.320 241.400 C 232.593 237.542,231.787 235.502,231.932 235.357 C 232.219 235.070,233.531 235.195,233.789 235.533 M247.676 235.533 C 247.960 235.877,250.933 242.487,250.933 242.773 C 250.933 243.426,249.014 242.861,248.760 242.133 C 248.490 241.359,248.428 241.333,246.806 241.333 C 245.197 241.333,245.118 241.365,244.800 242.133 C 244.514 242.825,244.330 242.933,243.449 242.933 L 242.430 242.933 244.148 239.167 C 245.093 237.096,245.867 235.356,245.867 235.300 C 245.867 235.038,247.434 235.240,247.676 235.533 M260.133 236.133 C 260.133 236.884,260.063 236.938,259.000 237.015 L 257.867 237.097 257.867 240.015 L 257.867 242.933 256.933 242.933 L 256.000 242.933 256.000 240.000 L 256.000 237.067 254.800 237.067 C 253.604 237.067,253.600 237.063,253.600 236.125 L 253.600 235.184 256.867 235.258 L 260.133 235.333 260.133 236.133 M265.541 239.133 L 265.615 242.933 264.674 242.933 L 263.733 242.933 263.733 239.050 L 263.733 235.166 264.600 235.250 L 265.467 235.333 265.541 239.133 M275.937 235.913 C 277.217 236.868,277.733 237.813,277.733 239.200 C 277.733 244.083,270.213 244.515,269.428 239.678 C 268.905 236.459,273.280 233.929,275.937 235.913 M283.400 235.674 C 283.657 235.934,284.467 236.894,285.200 237.806 L 286.533 239.465 286.667 237.399 L 286.800 235.333 287.733 235.333 L 288.667 235.333 288.741 239.133 L 288.815 242.933 287.907 242.933 C 287.093 242.933,286.816 242.708,285.233 240.761 L 283.467 238.589 283.467 240.761 L 283.467 242.933 282.533 242.933 L 281.600 242.933 281.600 239.244 C 281.600 237.216,281.680 235.476,281.778 235.378 C 282.108 235.047,282.931 235.197,283.400 235.674 M116.000 237.600 C 116.000 238.367,116.048 238.400,117.167 238.400 C 118.528 238.400,119.210 237.855,118.667 237.200 C 117.983 236.377,116.000 236.674,116.000 237.600 M208.267 237.145 C 207.396 237.586,206.851 238.749,207.063 239.715 C 207.624 242.271,211.481 241.836,211.458 239.220 C 211.442 237.362,209.865 236.337,208.267 237.145 M272.617 237.069 C 270.939 237.745,271.063 240.688,272.794 241.291 C 273.767 241.631,275.081 241.253,275.472 240.523 C 276.583 238.448,274.737 236.214,272.617 237.069 M148.291 238.311 C 148.089 238.873,147.869 239.483,147.800 239.667 C 147.716 239.895,147.980 240.000,148.638 240.000 C 149.726 240.000,149.776 239.820,149.109 238.311 L 148.657 237.289 148.291 238.311 M246.208 238.669 L 245.646 240.000 246.708 240.000 C 247.865 240.000,247.873 239.960,247.085 238.086 L 246.770 237.338 246.208 238.669 M116.000 240.667 C 116.000 241.589,116.014 241.600,117.149 241.600 C 119.209 241.600,119.970 240.274,118.123 239.905 C 116.298 239.540,116.000 239.647,116.000 240.667 M112.976 251.321 L 114.800 253.575 114.877 251.305 L 114.955 249.034 115.811 249.117 L 116.667 249.200 116.741 253.000 L 116.815 256.800 115.938 256.800 C 115.161 256.800,114.863 256.553,113.330 254.641 L 111.600 252.481 111.523 254.641 L 111.445 256.800 110.523 256.800 L 109.600 256.800 109.600 253.111 C 109.600 251.082,109.680 249.342,109.778 249.244 C 110.396 248.626,111.238 249.172,112.976 251.321 M126.475 249.432 C 129.559 250.746,129.633 255.164,126.594 256.543 C 122.874 258.232,119.174 254.679,121.028 251.196 C 121.982 249.403,124.496 248.589,126.475 249.432 M134.609 251.908 C 134.691 254.839,134.888 255.267,136.158 255.267 C 137.416 255.267,137.704 254.652,137.822 251.719 L 137.930 249.038 138.765 249.119 L 139.600 249.200 139.676 251.652 C 139.791 255.324,139.021 256.660,136.601 256.985 C 133.985 257.336,132.822 256.012,132.608 252.440 C 132.423 249.324,132.523 249.006,133.665 249.116 L 134.533 249.200 134.609 251.908 M149.153 249.622 C 150.849 250.406,151.121 253.636,149.539 254.208 C 149.190 254.334,149.294 254.593,150.338 256.200 C 151.097 257.368,148.831 257.038,148.032 255.865 C 147.110 254.511,145.867 254.512,145.867 255.867 C 145.867 256.756,145.822 256.800,144.933 256.800 L 144.000 256.800 144.000 252.896 L 144.000 248.991 146.200 249.133 C 147.410 249.211,148.739 249.431,149.153 249.622 M156.267 252.933 L 156.267 256.800 155.333 256.800 L 154.400 256.800 154.400 253.111 C 154.400 249.093,154.407 249.067,155.511 249.067 L 156.267 249.067 156.267 252.933 M165.294 249.359 C 166.206 249.678,166.327 250.033,165.779 250.783 C 165.489 251.179,165.322 251.212,164.863 250.967 C 164.195 250.610,162.949 250.581,162.428 250.911 C 161.762 251.332,162.329 251.930,163.710 252.261 C 166.172 252.852,167.104 254.342,165.999 255.920 C 164.948 257.421,160.257 257.315,160.271 255.791 C 160.280 254.808,160.619 254.668,161.883 255.122 C 163.307 255.634,164.617 255.433,164.482 254.724 C 164.429 254.442,163.937 254.135,163.198 253.922 C 161.356 253.392,160.697 252.982,160.419 252.192 C 159.654 250.016,162.475 248.377,165.294 249.359 M172.053 250.600 L 172.133 252.133 173.733 252.133 L 175.333 252.133 175.414 250.584 L 175.494 249.035 176.347 249.117 L 177.200 249.200 177.274 253.000 L 177.348 256.800 176.407 256.800 L 175.467 256.800 175.467 255.333 L 175.467 253.867 173.733 253.867 L 172.000 253.867 172.000 255.333 L 172.000 256.800 171.067 256.800 L 170.133 256.800 170.133 253.111 C 170.133 249.100,170.142 249.067,171.231 249.067 C 171.948 249.067,171.976 249.120,172.053 250.600 M187.418 249.933 L 187.502 250.667 185.484 250.667 L 183.467 250.667 183.467 251.467 L 183.467 252.267 185.200 252.267 L 186.933 252.267 186.933 253.067 L 186.933 253.867 185.200 253.867 C 183.529 253.867,183.467 253.891,183.467 254.533 C 183.467 255.185,183.511 255.200,185.467 255.200 L 187.467 255.200 187.467 256.000 L 187.467 256.800 184.533 256.800 L 181.600 256.800 181.600 252.924 L 181.600 249.049 184.467 249.124 L 187.333 249.200 187.418 249.933 M195.960 249.359 C 196.791 249.649,197.011 250.188,196.578 250.870 C 196.415 251.127,196.169 251.138,195.534 250.917 C 194.298 250.486,193.200 250.682,193.200 251.333 C 193.200 251.735,193.496 251.954,194.400 252.221 C 196.852 252.944,197.576 253.664,197.231 255.040 C 196.751 256.952,193.363 257.673,191.256 256.311 C 190.369 255.738,191.360 254.649,192.381 255.076 C 193.593 255.582,194.779 255.574,195.209 255.055 C 195.664 254.507,195.373 254.280,193.551 253.760 C 191.169 253.082,190.369 251.722,191.503 250.280 C 192.438 249.093,194.169 248.735,195.960 249.359 M208.478 250.664 C 209.646 252.550,209.601 252.535,210.273 251.286 C 211.127 249.696,211.732 249.067,212.404 249.067 C 213.418 249.067,213.363 249.339,211.843 251.868 C 210.638 253.873,210.401 254.475,210.401 255.533 L 210.400 256.800 209.467 256.800 L 208.533 256.800 208.533 255.476 C 208.533 254.344,208.323 253.806,207.087 251.767 C 205.548 249.229,205.526 249.067,206.723 249.067 C 207.372 249.067,207.641 249.311,208.478 250.664 M222.390 249.667 C 224.439 250.717,225.092 252.934,223.951 254.964 C 222.189 258.098,217.050 257.473,216.273 254.030 C 215.476 250.493,219.042 247.949,222.390 249.667 M230.176 251.854 C 230.275 254.905,230.449 255.289,231.733 255.289 C 233.000 255.289,233.188 254.893,233.333 251.921 L 233.467 249.200 234.333 249.116 L 235.200 249.033 235.200 251.875 C 235.200 255.894,234.113 257.349,231.386 256.983 C 229.013 256.665,228.276 255.480,228.271 251.978 C 228.266 249.160,228.301 249.067,229.354 249.067 L 230.085 249.067 230.176 251.854 M243.726 249.320 C 246.012 249.761,246.921 252.090,245.476 253.807 L 244.819 254.588 245.633 255.694 L 246.446 256.800 245.359 256.800 C 244.410 256.800,244.195 256.682,243.669 255.870 C 242.776 254.492,241.333 254.490,241.333 255.867 C 241.333 256.756,241.289 256.800,240.400 256.800 L 239.467 256.800 239.467 253.111 C 239.467 251.082,239.547 249.342,239.644 249.244 C 239.891 248.998,242.287 249.042,243.726 249.320 M260.333 249.347 C 261.469 249.663,261.439 249.611,261.019 250.531 C 260.796 251.021,260.584 251.164,260.286 251.025 C 259.326 250.578,257.467 250.770,257.467 251.317 C 257.467 251.720,257.823 251.940,259.067 252.308 C 260.793 252.819,261.600 253.543,261.600 254.580 C 261.600 256.521,259.397 257.538,256.800 256.798 C 255.282 256.365,255.124 256.192,255.496 255.376 C 255.846 254.607,256.018 254.525,256.424 254.931 C 256.804 255.311,258.999 255.535,259.439 255.238 C 260.110 254.785,259.550 254.244,257.949 253.799 C 255.981 253.252,255.403 252.659,255.516 251.301 C 255.668 249.469,257.742 248.628,260.333 249.347 M271.403 249.779 C 272.683 250.735,273.200 251.680,273.200 253.067 C 273.200 257.949,265.679 258.382,264.894 253.544 C 264.372 250.326,268.747 247.796,271.403 249.779 M278.933 251.921 C 279.079 254.893,279.267 255.289,280.533 255.289 C 281.819 255.289,281.991 254.906,282.091 251.839 L 282.183 249.037 283.025 249.118 L 283.867 249.200 283.937 251.867 C 284.034 255.529,282.983 257.067,280.382 257.067 C 277.943 257.067,277.067 255.691,277.067 251.863 L 277.067 249.033 277.933 249.116 L 278.800 249.200 278.933 251.921 M290.075 252.200 L 290.151 255.200 292.009 255.200 L 293.867 255.200 293.867 256.000 L 293.867 256.800 291.067 256.800 L 288.267 256.800 288.267 252.916 L 288.267 249.033 289.133 249.116 L 290.000 249.200 290.075 252.200 M123.733 251.012 C 122.862 251.452,122.317 252.616,122.529 253.582 C 123.091 256.138,126.948 255.703,126.925 253.087 C 126.908 251.229,125.331 250.203,123.733 251.012 M219.333 250.978 C 217.219 252.234,218.020 255.347,220.440 255.278 C 223.137 255.202,223.335 251.280,220.666 250.804 C 220.226 250.725,219.627 250.804,219.333 250.978 M268.084 250.935 C 266.406 251.611,266.529 254.554,268.261 255.158 C 269.234 255.497,270.548 255.120,270.939 254.389 C 272.050 252.314,270.204 250.081,268.084 250.935 M145.867 252.119 C 145.867 253.228,145.923 253.333,146.516 253.333 C 148.924 253.333,149.502 251.137,147.133 250.985 L 145.867 250.904 145.867 252.119 M241.333 252.008 C 241.333 253.244,241.671 253.479,243.067 253.218 C 245.013 252.853,244.537 250.933,242.501 250.933 L 241.333 250.933 241.333 252.008 " stroke="none" fill="#9bcbc3" fill-rule="evenodd"></path><path id="path1" d="M113.263 144.541 C 110.684 145.189,108.637 146.883,107.499 149.310 L 106.800 150.800 106.800 163.467 L 106.800 176.133 107.499 177.623 C 108.968 180.757,111.735 182.514,115.200 182.514 C 118.665 182.514,121.432 180.757,122.901 177.623 L 123.600 176.133 123.600 163.467 L 123.600 150.800 122.901 149.310 C 121.210 145.704,116.975 143.609,113.263 144.541 M247.407 144.682 C 245.857 145.523,245.754 146.915,247.028 149.823 C 247.520 150.947,248.078 152.345,248.269 152.929 C 248.566 153.839,248.646 153.916,248.825 153.463 C 248.940 153.172,249.521 151.764,250.117 150.336 C 251.593 146.796,251.538 145.531,249.872 144.669 C 248.910 144.172,248.342 144.175,247.407 144.682 M271.873 144.600 C 271.812 144.783,270.134 152.673,268.144 162.133 C 263.919 182.213,264.112 181.600,262.013 181.600 C 261.786 181.600,261.600 181.720,261.600 181.867 C 261.600 182.025,262.578 182.133,264.000 182.133 C 265.422 182.133,266.400 182.025,266.400 181.867 C 266.400 181.720,265.980 181.600,265.467 181.600 C 264.953 181.600,264.533 181.507,264.533 181.393 C 264.533 181.114,266.378 172.259,266.560 171.667 C 266.684 171.261,274.400 170.874,274.400 171.274 C 274.400 171.315,274.880 173.561,275.467 176.267 C 276.053 178.972,276.533 181.279,276.533 181.393 C 276.533 181.507,276.053 181.600,275.467 181.600 C 274.880 181.600,274.400 181.720,274.400 181.867 C 274.400 182.033,276.000 182.133,278.667 182.133 C 281.333 182.133,282.933 182.033,282.933 181.867 C 282.933 181.720,282.463 181.600,281.888 181.600 C 280.857 181.600,280.840 181.583,280.575 180.333 C 280.428 179.637,278.588 171.237,276.487 161.667 C 272.858 145.140,272.335 143.203,271.873 144.600 M68.000 145.067 C 68.000 145.213,68.273 145.333,68.607 145.333 C 68.941 145.333,69.481 145.520,69.807 145.748 L 70.400 146.164 70.400 163.467 L 70.400 180.770 69.807 181.185 C 69.481 181.413,68.941 181.600,68.607 181.600 C 68.273 181.600,68.000 181.720,68.000 181.867 C 68.000 182.026,69.022 182.133,70.533 182.133 C 72.044 182.133,73.067 182.026,73.067 181.867 C 73.067 181.720,72.587 181.600,72.000 181.600 L 70.933 181.600 70.950 165.400 C 70.960 156.490,71.062 149.440,71.179 149.733 C 71.295 150.027,73.116 157.440,75.226 166.207 C 78.170 178.442,79.150 182.131,79.440 182.074 C 79.715 182.020,80.776 177.381,83.347 164.984 C 85.288 155.626,86.949 147.896,87.038 147.807 C 87.127 147.717,87.200 155.284,87.200 164.622 L 87.200 181.600 86.133 181.600 C 85.547 181.600,85.067 181.720,85.067 181.867 C 85.067 182.033,86.622 182.133,89.200 182.133 C 91.778 182.133,93.333 182.033,93.333 181.867 C 93.333 181.720,92.853 181.600,92.267 181.600 L 91.200 181.600 91.200 163.467 L 91.200 145.333 92.267 145.333 C 92.853 145.333,93.333 145.210,93.333 145.058 C 93.333 144.881,92.227 144.810,90.210 144.858 L 87.086 144.933 84.244 158.695 C 82.682 166.264,81.346 172.624,81.277 172.829 C 81.159 173.175,80.220 169.448,75.977 151.800 L 74.294 144.800 71.147 144.800 C 69.227 144.800,68.000 144.904,68.000 145.067 M117.056 145.498 C 118.037 146.324,118.619 147.375,119.105 149.200 C 119.618 151.126,119.618 175.807,119.105 177.733 C 117.689 183.049,113.601 183.737,111.680 178.984 C 110.717 176.602,110.717 150.331,111.680 147.949 C 112.871 145.001,115.202 143.938,117.056 145.498 M136.267 148.533 C 136.267 152.288,136.585 153.473,136.892 150.862 C 137.372 146.775,138.608 145.333,141.632 145.333 L 143.733 145.333 143.733 163.467 L 143.733 181.600 142.667 181.600 C 142.080 181.600,141.600 181.720,141.600 181.867 C 141.600 182.033,143.200 182.133,145.867 182.133 C 148.533 182.133,150.133 182.033,150.133 181.867 C 150.133 181.720,149.653 181.600,149.067 181.600 L 148.000 181.600 148.000 163.467 L 148.000 145.333 150.169 145.333 C 153.249 145.333,154.933 147.370,154.933 151.097 C 154.933 151.740,155.053 152.267,155.200 152.267 C 155.365 152.267,155.467 150.844,155.467 148.533 L 155.467 144.800 145.867 144.800 L 136.267 144.800 136.267 148.533 M166.933 145.067 C 166.933 145.213,167.413 145.333,168.000 145.333 L 169.067 145.333 169.067 163.467 L 169.067 181.600 168.000 181.600 C 167.413 181.600,166.933 181.720,166.933 181.867 C 166.933 182.033,168.533 182.133,171.200 182.133 C 173.867 182.133,175.467 182.033,175.467 181.867 C 175.467 181.720,174.987 181.600,174.400 181.600 L 173.333 181.600 173.333 163.467 L 173.333 145.333 174.400 145.333 C 174.987 145.333,175.467 145.213,175.467 145.067 C 175.467 144.900,173.867 144.800,171.200 144.800 C 168.533 144.800,166.933 144.900,166.933 145.067 M186.133 145.067 C 186.133 145.213,186.643 145.334,187.267 145.334 L 188.400 145.334 189.794 151.667 C 190.561 155.150,192.409 163.550,193.900 170.333 C 196.507 182.186,196.980 183.776,197.431 182.200 C 197.504 181.943,199.200 173.933,201.200 164.400 C 205.068 145.957,205.081 145.912,206.759 145.486 C 208.431 145.062,207.835 144.800,205.200 144.800 C 203.689 144.800,202.667 144.908,202.667 145.067 C 202.667 145.213,203.160 145.333,203.762 145.333 C 204.765 145.333,204.845 145.384,204.709 145.933 C 204.627 146.263,203.349 152.293,201.868 159.333 C 200.387 166.373,199.084 172.362,198.972 172.641 C 198.798 173.077,192.780 146.800,192.796 145.667 C 192.798 145.456,193.193 145.333,193.867 145.333 C 194.453 145.333,194.933 145.213,194.933 145.067 C 194.933 144.900,193.289 144.800,190.533 144.800 C 187.778 144.800,186.133 144.900,186.133 145.067 M218.133 145.067 C 218.133 145.213,218.613 145.333,219.200 145.333 L 220.267 145.333 220.267 163.467 L 220.267 181.600 219.200 181.600 C 218.613 181.600,218.133 181.720,218.133 181.867 C 218.133 182.038,220.889 182.133,225.867 182.133 L 233.600 182.133 233.600 178.400 C 233.600 176.089,233.498 174.667,233.333 174.667 C 233.187 174.667,233.067 175.193,233.067 175.836 C 233.067 177.519,232.295 179.666,231.316 180.703 L 230.470 181.600 227.502 181.600 L 224.533 181.600 224.533 172.655 L 224.533 163.711 226.600 163.789 L 228.667 163.867 229.267 165.057 C 229.597 165.711,229.867 166.641,229.867 167.123 C 229.867 167.605,229.987 168.000,230.133 168.000 C 230.301 168.000,230.400 166.311,230.400 163.467 C 230.400 160.622,230.301 158.933,230.133 158.933 C 229.987 158.933,229.865 159.383,229.862 159.933 C 229.860 160.483,229.586 161.413,229.255 162.000 L 228.652 163.067 226.592 163.145 L 224.533 163.222 224.533 154.278 L 224.533 145.333 227.502 145.333 L 230.470 145.333 231.316 146.230 C 232.295 147.268,233.067 149.414,233.067 151.097 C 233.067 151.740,233.187 152.267,233.333 152.267 C 233.498 152.267,233.600 150.844,233.600 148.533 L 233.600 144.800 225.867 144.800 C 220.889 144.800,218.133 144.895,218.133 145.067 M293.067 148.549 C 293.067 150.981,293.160 152.240,293.333 152.133 C 293.480 152.043,293.600 151.517,293.600 150.966 C 293.600 147.335,295.293 145.333,298.365 145.333 L 300.533 145.333 300.533 163.467 L 300.533 181.600 299.467 181.600 C 298.880 181.600,298.400 181.720,298.400 181.867 C 298.400 182.033,299.956 182.133,302.533 182.133 C 305.111 182.133,306.667 182.033,306.667 181.867 C 306.667 181.720,306.187 181.600,305.600 181.600 L 304.533 181.600 304.533 163.467 L 304.533 145.333 306.772 145.333 C 309.889 145.333,310.814 146.331,311.595 150.533 L 311.942 152.400 311.971 148.600 L 312.000 144.800 302.533 144.800 L 293.067 144.800 293.067 148.549 M323.733 145.067 C 323.733 145.213,324.213 145.333,324.800 145.333 L 325.867 145.333 325.867 163.467 L 325.867 181.600 324.800 181.600 C 324.213 181.600,323.733 181.720,323.733 181.867 C 323.733 182.038,326.489 182.133,331.467 182.133 L 339.200 182.133 339.200 178.400 C 339.200 174.553,338.871 173.437,338.574 176.277 C 338.132 180.507,336.994 181.600,333.031 181.600 L 330.133 181.600 330.133 172.667 L 330.133 163.733 331.981 163.733 C 334.359 163.733,335.467 164.832,335.467 167.191 C 335.467 167.636,335.587 168.000,335.733 168.000 C 335.901 168.000,336.000 166.311,336.000 163.467 C 336.000 160.622,335.901 158.933,335.733 158.933 C 335.587 158.933,335.467 159.291,335.467 159.728 C 335.467 162.172,334.405 163.200,331.884 163.200 L 330.133 163.200 330.133 154.267 L 330.133 145.333 333.031 145.333 C 336.994 145.333,338.132 146.426,338.574 150.656 C 338.871 153.496,339.200 152.381,339.200 148.533 L 339.200 144.800 331.467 144.800 C 326.489 144.800,323.733 144.895,323.733 145.067 M274.084 170.539 C 274.005 170.618,272.325 170.649,270.352 170.608 L 266.763 170.533 268.556 162.267 C 269.542 157.720,270.369 153.940,270.395 153.867 C 270.421 153.793,271.294 157.482,272.335 162.064 C 273.376 166.646,274.163 170.460,274.084 170.539 M54.667 208.400 L 54.667 209.600 201.200 209.600 L 347.733 209.600 347.733 208.400 L 347.733 207.200 201.200 207.200 L 54.667 207.200 54.667 208.400 M114.133 239.205 L 114.133 242.994 116.963 242.889 C 120.738 242.749,122.285 241.150,120.288 239.451 C 119.864 239.089,119.848 238.969,120.166 238.533 C 121.475 236.743,120.225 235.628,116.773 235.508 L 114.133 235.417 114.133 239.205 M125.067 239.200 L 125.067 242.933 128.000 242.933 L 130.933 242.933 130.933 242.267 C 130.933 241.611,130.898 241.600,128.800 241.600 L 126.667 241.600 126.667 240.667 L 126.667 239.733 128.400 239.733 C 130.071 239.733,130.133 239.709,130.133 239.067 C 130.133 238.424,130.071 238.400,128.400 238.400 L 126.667 238.400 126.667 237.600 L 126.667 236.800 128.667 236.800 C 130.622 236.800,130.667 236.785,130.667 236.133 L 130.667 235.467 127.867 235.467 L 125.067 235.467 125.067 239.200 M136.346 235.989 C 133.960 237.444,134.156 241.502,136.664 242.549 C 137.987 243.102,139.703 243.031,140.773 242.379 L 141.679 241.827 141.132 241.280 C 140.619 240.767,140.547 240.760,139.967 241.167 C 137.614 242.815,134.886 239.490,136.921 237.455 C 137.606 236.769,139.527 236.516,139.867 237.067 C 140.110 237.461,140.954 237.390,141.325 236.944 C 142.291 235.779,138.031 234.962,136.346 235.989 M147.520 236.200 C 147.374 236.603,146.648 238.283,145.907 239.933 L 144.560 242.933 145.421 242.933 C 146.134 242.933,146.335 242.795,146.585 242.133 C 146.880 241.351,146.928 241.333,148.718 241.333 C 150.508 241.333,150.557 241.351,150.852 242.133 C 151.100 242.792,151.304 242.933,152.005 242.933 C 152.581 242.933,152.813 242.825,152.721 242.600 C 150.579 237.337,149.513 235.467,148.658 235.467 C 147.948 235.467,147.736 235.604,147.520 236.200 M156.533 238.121 C 156.533 241.924,157.204 242.933,159.733 242.933 C 162.284 242.933,162.979 241.970,163.148 238.200 L 163.270 235.467 162.435 235.467 L 161.600 235.467 161.600 237.583 C 161.600 240.650,161.158 241.587,159.708 241.596 C 158.443 241.603,158.133 240.904,158.133 238.046 L 158.133 235.467 157.333 235.467 L 156.533 235.467 156.533 238.121 M168.203 235.884 C 166.378 236.875,166.948 238.847,169.286 239.631 C 171.185 240.267,171.608 240.581,171.377 241.182 C 171.185 241.682,169.073 241.765,168.215 241.306 C 167.651 241.004,167.214 241.322,167.204 242.041 C 167.186 243.378,172.377 243.088,172.901 241.721 C 173.526 240.092,172.812 239.153,170.496 238.562 C 169.111 238.209,168.472 237.554,168.999 237.028 C 169.366 236.661,170.741 236.597,171.764 236.900 C 172.650 237.162,173.073 236.165,172.260 235.730 C 171.527 235.337,169.037 235.432,168.203 235.884 M177.067 239.200 L 177.067 242.933 180.000 242.933 L 182.933 242.933 182.933 242.267 C 182.933 241.611,182.898 241.600,180.800 241.600 L 178.667 241.600 178.667 240.667 L 178.667 239.733 180.400 239.733 C 182.071 239.733,182.133 239.709,182.133 239.067 C 182.133 238.424,182.071 238.400,180.400 238.400 L 178.667 238.400 178.667 237.600 L 178.667 236.800 180.667 236.800 C 182.622 236.800,182.667 236.785,182.667 236.133 L 182.667 235.467 179.867 235.467 L 177.067 235.467 177.067 239.200 M192.800 239.200 L 192.800 242.933 193.467 242.933 C 194.122 242.933,194.133 242.898,194.133 240.800 C 194.133 238.224,194.250 238.192,195.544 240.405 C 196.802 242.557,197.037 242.555,198.308 240.378 L 199.333 238.623 199.411 240.778 L 199.488 242.933 200.277 242.933 L 201.067 242.933 201.067 239.200 L 201.067 235.467 200.418 235.467 C 199.889 235.467,199.516 235.885,198.400 237.733 C 197.647 238.980,196.987 240.000,196.933 240.000 C 196.880 240.000,196.220 238.980,195.467 237.733 C 194.350 235.885,193.978 235.467,193.449 235.467 L 192.800 235.467 192.800 239.200 M207.013 235.974 C 204.627 237.471,204.822 241.501,207.331 242.549 C 211.783 244.410,215.341 239.509,211.883 236.279 C 210.900 235.360,208.254 235.194,207.013 235.974 M216.533 236.133 C 216.533 236.746,216.631 236.800,217.733 236.800 L 218.933 236.800 218.933 239.867 L 218.933 242.933 219.733 242.933 L 220.533 242.933 220.533 239.867 L 220.533 236.800 221.733 236.800 C 222.836 236.800,222.933 236.746,222.933 236.133 L 222.933 235.467 219.733 235.467 L 216.533 235.467 216.533 236.133 M226.667 239.200 L 226.667 242.933 227.467 242.933 L 228.267 242.933 228.267 239.200 L 228.267 235.467 227.467 235.467 L 226.667 235.467 226.667 239.200 M232.017 235.650 C 232.027 235.769,232.724 237.427,233.568 239.333 C 235.796 244.373,236.113 244.364,238.345 239.198 L 239.971 235.435 239.128 235.518 C 238.339 235.595,238.219 235.756,237.233 238.067 C 236.654 239.423,236.099 240.533,236.000 240.533 C 235.901 240.533,235.346 239.423,234.767 238.067 C 233.775 235.743,233.665 235.595,232.857 235.516 C 232.386 235.470,232.008 235.530,232.017 235.650 M244.672 238.333 C 243.973 239.910,243.234 241.590,243.030 242.067 L 242.660 242.933 243.486 242.933 C 244.160 242.933,244.369 242.785,244.615 242.133 C 244.910 241.351,244.958 241.333,246.748 241.333 C 248.538 241.333,248.586 241.351,248.882 242.133 C 249.132 242.797,249.332 242.933,250.055 242.933 L 250.927 242.933 250.236 241.400 C 249.856 240.557,249.112 238.877,248.581 237.667 C 247.103 234.294,246.411 234.412,244.672 238.333 M253.600 236.133 C 253.600 236.746,253.698 236.800,254.800 236.800 L 256.000 236.800 256.000 239.867 L 256.000 242.933 256.800 242.933 L 257.600 242.933 257.600 239.867 L 257.600 236.800 258.800 236.800 C 259.902 236.800,260.000 236.746,260.000 236.133 L 260.000 235.467 256.800 235.467 L 253.600 235.467 253.600 236.133 M263.733 239.200 L 263.733 242.933 264.533 242.933 L 265.333 242.933 265.333 239.200 L 265.333 235.467 264.533 235.467 L 263.733 235.467 263.733 239.200 M271.280 235.989 C 269.649 236.983,269.117 239.242,270.087 241.050 C 271.475 243.637,275.904 243.539,277.191 240.893 C 278.904 237.373,274.713 233.896,271.280 235.989 M281.867 239.200 L 281.867 242.933 282.667 242.933 L 283.467 242.933 283.467 240.649 L 283.467 238.365 285.349 240.649 C 286.775 242.379,287.390 242.933,287.883 242.933 L 288.533 242.933 288.533 239.200 L 288.533 235.467 287.744 235.467 L 286.954 235.467 286.877 237.757 L 286.800 240.048 284.959 237.757 C 283.591 236.055,282.958 235.467,282.492 235.467 L 281.867 235.467 281.867 239.200 M118.883 237.515 C 118.990 238.269,118.153 238.723,116.855 238.615 C 115.951 238.540,115.859 238.458,115.782 237.653 L 115.697 236.772 117.249 236.853 C 118.610 236.923,118.810 237.004,118.883 237.515 M210.947 237.482 C 211.886 238.481,211.839 240.108,210.846 240.962 C 209.193 242.383,206.933 241.366,206.933 239.200 C 206.933 236.999,209.473 235.912,210.947 237.482 M274.956 237.142 C 276.201 238.097,276.317 239.724,275.221 240.821 C 274.127 241.914,272.831 241.898,271.890 240.780 C 270.471 239.093,271.453 236.817,273.600 236.817 C 274.113 236.817,274.724 236.963,274.956 237.142 M149.343 238.555 C 149.631 239.228,149.867 239.828,149.867 239.889 C 149.867 239.950,149.330 240.000,148.673 240.000 C 147.509 240.000,147.486 239.984,147.740 239.333 C 147.883 238.967,148.117 238.367,148.260 238.000 C 148.617 237.086,148.740 237.149,149.343 238.555 M247.558 238.867 L 247.996 240.000 246.798 240.000 C 246.139 240.000,245.600 239.950,245.600 239.889 C 245.600 239.828,245.844 239.208,246.143 238.511 C 246.736 237.127,246.901 237.168,247.558 238.867 M119.164 240.193 C 119.684 241.123,119.060 241.600,117.324 241.600 L 115.733 241.600 115.733 240.667 L 115.733 239.733 117.320 239.733 C 118.545 239.733,118.966 239.838,119.164 240.193 M109.867 253.067 L 109.867 256.800 110.656 256.800 L 111.446 256.800 111.523 254.532 L 111.600 252.265 113.428 254.532 C 114.803 256.237,115.415 256.800,115.895 256.800 L 116.533 256.800 116.533 253.067 L 116.533 249.333 115.733 249.333 L 114.933 249.333 114.933 251.633 L 114.933 253.932 113.048 251.633 C 111.621 249.893,111.005 249.333,110.515 249.333 L 109.867 249.333 109.867 253.067 M122.480 249.840 C 120.094 251.338,120.289 255.368,122.797 256.416 C 127.249 258.276,130.808 253.376,127.350 250.145 C 126.367 249.227,123.721 249.061,122.480 249.840 M132.800 251.800 C 132.801 255.606,133.635 256.788,136.329 256.796 C 137.350 256.799,137.758 256.651,138.462 256.022 L 139.333 255.245 139.424 252.289 L 139.514 249.333 138.690 249.333 L 137.867 249.333 137.867 251.807 C 137.867 254.678,137.519 255.467,136.252 255.467 C 134.781 255.467,134.400 254.725,134.400 251.867 L 134.400 249.333 133.600 249.333 L 132.800 249.333 132.800 251.800 M144.000 253.067 L 144.000 256.800 144.800 256.800 C 145.556 256.800,145.600 256.741,145.600 255.733 C 145.600 254.700,145.628 254.667,146.497 254.667 C 147.243 254.667,147.519 254.847,148.133 255.733 C 149.385 257.540,150.918 257.304,149.717 255.490 L 149.034 254.457 149.717 253.774 C 151.858 251.633,149.937 249.333,146.009 249.333 L 144.000 249.333 144.000 253.067 M154.667 253.067 L 154.667 256.800 155.467 256.800 L 156.267 256.800 156.267 253.067 L 156.267 249.333 155.467 249.333 L 154.667 249.333 154.667 253.067 M161.170 249.958 C 159.669 251.249,160.412 253.059,162.667 253.600 C 163.376 253.770,164.172 254.067,164.435 254.259 C 165.614 255.121,163.257 255.881,161.489 255.208 C 160.921 254.993,160.761 255.042,160.511 255.509 C 159.709 257.007,164.530 257.344,165.791 255.878 C 167.043 254.422,166.281 253.169,163.696 252.431 C 161.174 251.712,161.772 249.973,164.319 250.619 C 165.575 250.938,165.867 250.850,165.867 250.149 C 165.867 249.119,162.314 248.974,161.170 249.958 M170.400 253.067 L 170.400 256.800 171.200 256.800 L 172.000 256.800 172.000 255.200 L 172.000 253.600 173.733 253.600 L 175.467 253.600 175.467 255.200 L 175.467 256.800 176.267 256.800 L 177.067 256.800 177.067 253.067 L 177.067 249.333 176.267 249.333 C 175.475 249.333,175.467 249.348,175.467 250.800 L 175.467 252.267 173.733 252.267 L 172.000 252.267 172.000 250.800 C 172.000 249.348,171.992 249.333,171.200 249.333 L 170.400 249.333 170.400 253.067 M181.600 253.067 L 181.600 256.800 184.533 256.800 L 187.467 256.800 187.467 256.133 C 187.467 255.478,187.431 255.467,185.333 255.467 L 183.200 255.467 183.200 254.533 L 183.200 253.600 184.933 253.600 C 186.604 253.600,186.667 253.576,186.667 252.933 C 186.667 252.291,186.604 252.267,184.933 252.267 L 183.200 252.267 183.200 251.467 L 183.200 250.667 185.200 250.667 C 187.156 250.667,187.200 250.652,187.200 250.000 L 187.200 249.333 184.400 249.333 L 181.600 249.333 181.600 253.067 M192.203 249.751 C 190.378 250.741,190.948 252.713,193.286 253.497 C 195.185 254.134,195.608 254.448,195.377 255.049 C 195.185 255.549,193.073 255.631,192.215 255.172 C 191.651 254.870,191.214 255.188,191.204 255.907 C 191.186 257.245,196.377 256.954,196.901 255.588 C 197.526 253.958,196.812 253.020,194.496 252.429 C 193.111 252.076,192.472 251.421,192.999 250.894 C 193.366 250.527,194.741 250.464,195.764 250.767 C 196.650 251.029,197.073 250.032,196.260 249.597 C 195.527 249.204,193.037 249.299,192.203 249.751 M206.098 249.800 C 206.236 250.057,206.900 251.161,207.574 252.254 C 208.584 253.892,208.800 254.467,208.800 255.521 C 208.800 256.764,208.822 256.800,209.600 256.800 C 210.387 256.800,210.400 256.778,210.401 255.400 C 210.401 254.194,210.586 253.693,211.734 251.784 C 213.300 249.179,213.264 249.333,212.319 249.333 C 211.687 249.333,211.432 249.578,210.653 250.930 C 209.530 252.880,209.639 252.880,208.519 250.936 C 207.691 249.497,207.513 249.339,206.724 249.336 C 205.972 249.334,205.883 249.399,206.098 249.800 M218.242 249.752 C 216.505 250.610,215.776 253.192,216.799 254.869 C 218.858 258.247,224.262 256.982,224.266 253.120 C 224.268 250.100,221.113 248.336,218.242 249.752 M228.533 251.987 C 228.533 255.791,229.204 256.800,231.733 256.800 C 234.284 256.800,234.979 255.837,235.148 252.067 L 235.270 249.333 234.435 249.333 L 233.600 249.333 233.600 251.449 C 233.600 254.517,233.158 255.454,231.708 255.463 C 230.443 255.470,230.133 254.771,230.133 251.912 L 230.133 249.333 229.333 249.333 L 228.533 249.333 228.533 251.987 M239.733 253.040 L 239.733 256.800 240.533 256.800 C 241.289 256.800,241.333 256.741,241.333 255.733 C 241.333 254.707,241.366 254.667,242.204 254.667 C 242.932 254.667,243.182 254.841,243.733 255.733 C 244.287 256.629,244.534 256.800,245.272 256.800 C 246.235 256.800,246.215 256.626,245.089 255.200 L 244.563 254.533 245.275 253.789 C 247.302 251.671,245.766 249.515,242.128 249.373 L 239.733 249.280 239.733 253.040 M256.246 250.113 C 254.844 251.515,255.558 253.046,257.875 253.602 C 259.484 253.988,260.167 254.544,259.710 255.095 C 259.339 255.542,257.265 255.592,256.482 255.172 C 255.916 254.870,255.480 255.189,255.471 255.913 C 255.458 256.916,259.860 257.058,260.832 256.086 C 262.197 254.721,261.403 253.227,258.876 252.403 C 257.972 252.108,257.197 251.747,257.154 251.600 C 256.893 250.717,258.394 250.282,260.031 250.767 C 260.576 250.928,260.768 250.869,260.912 250.494 C 261.439 249.120,257.556 248.803,256.246 250.113 M266.746 249.856 C 265.116 250.850,264.584 253.108,265.554 254.917 C 266.941 257.504,271.371 257.406,272.658 254.760 C 274.371 251.239,270.179 247.763,266.746 249.856 M277.068 251.533 C 277.071 255.493,277.918 256.797,280.492 256.799 C 283.032 256.801,283.733 255.760,283.733 251.987 L 283.733 249.333 282.933 249.333 L 282.133 249.333 282.133 251.959 C 282.133 254.831,281.837 255.471,280.512 255.463 C 279.112 255.454,278.667 254.485,278.667 251.449 L 278.667 249.333 277.867 249.333 L 277.067 249.333 277.068 251.533 M288.267 253.067 L 288.267 256.800 291.067 256.800 L 293.867 256.800 293.867 256.133 C 293.867 255.481,293.822 255.467,291.867 255.467 L 289.867 255.467 289.867 252.400 L 289.867 249.333 289.067 249.333 L 288.267 249.333 288.267 253.067 M126.414 251.348 C 127.353 252.348,127.305 253.974,126.312 254.828 C 124.660 256.250,122.400 255.232,122.400 253.067 C 122.400 250.866,124.940 249.779,126.414 251.348 M148.381 251.086 C 149.481 252.186,148.615 253.333,146.684 253.333 L 145.600 253.333 145.600 252.000 L 145.600 250.667 146.781 250.667 C 147.499 250.667,148.126 250.831,148.381 251.086 M222.012 251.321 C 223.465 252.774,222.403 255.467,220.379 255.467 C 219.208 255.467,218.158 254.532,217.965 253.319 C 217.616 251.130,220.432 249.741,222.012 251.321 M244.158 251.333 C 244.865 252.412,244.114 253.333,242.527 253.333 L 241.333 253.333 241.333 252.000 L 241.333 250.667 242.527 250.667 C 243.506 250.667,243.800 250.787,244.158 251.333 M270.423 251.008 C 271.667 251.964,271.784 253.590,270.687 254.687 C 269.594 255.781,268.298 255.765,267.357 254.646 C 265.938 252.960,266.920 250.684,269.067 250.684 C 269.580 250.684,270.190 250.830,270.423 251.008 " stroke="none" fill="#1d1e1e" fill-rule="evenodd"></path><path id="path2" d="M155.573 148.533 C 155.573 150.660,155.614 151.530,155.665 150.467 C 155.715 149.403,155.715 147.663,155.665 146.600 C 155.614 145.537,155.573 146.407,155.573 148.533 M233.706 148.533 C 233.706 150.660,233.747 151.530,233.798 150.467 C 233.849 149.403,233.849 147.663,233.798 146.600 C 233.747 145.537,233.706 146.407,233.706 148.533 M292.906 148.533 C 292.906 150.660,292.947 151.530,292.998 150.467 C 293.049 149.403,293.049 147.663,292.998 146.600 C 292.947 145.537,292.906 146.407,292.906 148.533 M148.126 163.467 C 148.126 173.513,148.159 177.623,148.200 172.600 C 148.240 167.577,148.240 159.357,148.200 154.333 C 148.159 149.310,148.126 153.420,148.126 163.467 M173.459 163.467 C 173.459 173.513,173.493 177.623,173.533 172.600 C 173.574 167.577,173.574 159.357,173.533 154.333 C 173.493 149.310,173.459 153.420,173.459 163.467 M224.653 154.267 C 224.653 159.253,224.689 161.256,224.733 158.716 C 224.777 156.177,224.777 152.097,224.733 149.650 C 224.689 147.202,224.653 149.280,224.653 154.267 M300.393 163.467 C 300.393 173.513,300.426 177.623,300.467 172.600 C 300.507 167.577,300.507 159.357,300.467 154.333 C 300.426 149.310,300.393 153.420,300.393 163.467 M71.059 165.600 C 71.059 174.473,71.092 178.103,71.133 173.667 C 71.174 169.230,71.174 161.970,71.133 157.533 C 71.092 153.097,71.059 156.727,71.059 165.600 M230.510 163.467 C 230.510 166.033,230.550 167.083,230.599 165.800 C 230.647 164.517,230.647 162.417,230.599 161.133 C 230.550 159.850,230.510 160.900,230.510 163.467 M224.653 172.667 C 224.653 177.653,224.689 179.656,224.733 177.116 C 224.777 174.577,224.777 170.497,224.733 168.050 C 224.689 165.602,224.653 167.680,224.653 172.667 M233.706 178.400 C 233.706 180.527,233.747 181.397,233.798 180.333 C 233.849 179.270,233.849 177.530,233.798 176.467 C 233.747 175.403,233.706 176.273,233.706 178.400 M115.000 235.394 C 115.550 235.452,116.450 235.452,117.000 235.394 C 117.550 235.337,117.100 235.290,116.000 235.290 C 114.900 235.290,114.450 235.337,115.000 235.394 M126.476 235.397 C 127.325 235.450,128.645 235.450,129.410 235.396 C 130.174 235.343,129.480 235.299,127.867 235.300 C 126.253 235.300,125.628 235.344,126.476 235.397 M148.000 235.304 C 148.000 235.361,148.412 235.456,148.915 235.515 C 149.418 235.574,149.771 235.527,149.699 235.411 C 149.570 235.202,148.000 235.103,148.000 235.304 M156.867 235.384 C 157.123 235.451,157.543 235.451,157.800 235.384 C 158.057 235.317,157.847 235.262,157.333 235.262 C 156.820 235.262,156.610 235.317,156.867 235.384 M161.933 235.384 C 162.190 235.451,162.610 235.451,162.867 235.384 C 163.123 235.317,162.913 235.262,162.400 235.262 C 161.887 235.262,161.677 235.317,161.933 235.384 M178.476 235.397 C 179.325 235.450,180.645 235.450,181.410 235.396 C 182.174 235.343,181.480 235.299,179.867 235.300 C 178.253 235.300,177.628 235.344,178.476 235.397 M200.459 235.391 C 201.029 235.496,201.055 235.630,201.137 238.884 L 201.223 242.267 201.212 238.800 L 201.200 235.333 200.533 235.308 C 199.969 235.286,199.958 235.299,200.459 235.391 M218.067 235.397 C 218.983 235.450,220.483 235.450,221.400 235.397 C 222.317 235.345,221.567 235.303,219.733 235.303 C 217.900 235.303,217.150 235.345,218.067 235.397 M226.517 235.547 C 226.444 235.738,226.421 237.508,226.467 239.480 L 226.550 243.067 226.608 239.284 L 226.667 235.500 227.533 235.393 L 228.400 235.285 227.525 235.243 C 227.019 235.218,226.594 235.346,226.517 235.547 M232.333 235.384 C 232.590 235.451,233.010 235.451,233.267 235.384 C 233.523 235.317,233.313 235.262,232.800 235.262 C 232.287 235.262,232.077 235.317,232.333 235.384 M238.733 235.384 C 238.990 235.451,239.410 235.451,239.667 235.384 C 239.923 235.317,239.713 235.262,239.200 235.262 C 238.687 235.262,238.477 235.317,238.733 235.384 M246.200 235.384 C 246.457 235.451,246.877 235.451,247.133 235.384 C 247.390 235.317,247.180 235.262,246.667 235.262 C 246.153 235.262,245.943 235.317,246.200 235.384 M255.133 235.397 C 256.050 235.450,257.550 235.450,258.467 235.397 C 259.383 235.345,258.633 235.303,256.800 235.303 C 254.967 235.303,254.217 235.345,255.133 235.397 M264.067 235.384 C 264.323 235.451,264.743 235.451,265.000 235.384 C 265.257 235.317,265.047 235.262,264.533 235.262 C 264.020 235.262,263.810 235.317,264.067 235.384 M286.786 235.541 C 286.706 235.748,286.683 236.805,286.734 237.892 L 286.827 239.867 286.880 237.667 L 286.933 235.467 287.726 235.467 L 288.519 235.467 288.604 239.267 L 288.690 243.067 288.678 239.200 L 288.667 235.333 287.798 235.250 C 287.236 235.195,286.879 235.298,286.786 235.541 M217.137 236.991 C 217.542 237.053,218.142 237.051,218.470 236.988 C 218.798 236.924,218.467 236.874,217.733 236.876 C 217.000 236.878,216.732 236.930,217.137 236.991 M221.267 236.988 C 221.597 237.052,222.137 237.052,222.467 236.988 C 222.797 236.925,222.527 236.873,221.867 236.873 C 221.207 236.873,220.937 236.925,221.267 236.988 M254.204 236.991 C 254.609 237.053,255.209 237.051,255.537 236.988 C 255.865 236.924,255.533 236.874,254.800 236.876 C 254.067 236.878,253.798 236.930,254.204 236.991 M258.333 236.988 C 258.663 237.052,259.203 237.052,259.533 236.988 C 259.863 236.925,259.593 236.873,258.933 236.873 C 258.273 236.873,258.003 236.925,258.333 236.988 M127.661 239.926 C 128.134 239.985,128.974 239.986,129.527 239.928 C 130.081 239.870,129.693 239.822,128.667 239.821 C 127.640 239.820,127.187 239.867,127.661 239.926 M179.661 239.926 C 180.134 239.985,180.974 239.986,181.527 239.928 C 182.081 239.870,181.693 239.822,180.667 239.821 C 179.640 239.820,179.187 239.867,179.661 239.926 M127.940 241.529 C 128.568 241.585,129.528 241.584,130.074 241.527 C 130.620 241.470,130.107 241.424,128.933 241.425 C 127.760 241.426,127.313 241.473,127.940 241.529 M179.940 241.529 C 180.568 241.585,181.528 241.584,182.074 241.527 C 182.620 241.470,182.107 241.424,180.933 241.425 C 179.760 241.426,179.313 241.473,179.940 241.529 M115.267 249.250 C 115.523 249.318,115.943 249.318,116.200 249.250 C 116.457 249.183,116.247 249.129,115.733 249.129 C 115.220 249.129,115.010 249.183,115.267 249.250 M132.646 249.425 C 132.570 249.622,132.550 250.672,132.601 251.758 L 132.694 253.733 132.747 251.550 L 132.800 249.367 133.667 249.260 L 134.533 249.152 133.658 249.109 C 133.138 249.084,132.727 249.212,132.646 249.425 M138.200 249.250 C 138.457 249.318,138.877 249.318,139.133 249.250 C 139.390 249.183,139.180 249.129,138.667 249.129 C 138.153 249.129,137.943 249.183,138.200 249.250 M144.727 249.259 C 145.201 249.318,146.041 249.319,146.594 249.261 C 147.147 249.204,146.760 249.155,145.733 249.154 C 144.707 249.153,144.254 249.200,144.727 249.259 M155.000 249.250 C 155.257 249.318,155.677 249.318,155.933 249.250 C 156.190 249.183,155.980 249.129,155.467 249.129 C 154.953 249.129,154.743 249.183,155.000 249.250 M170.733 249.250 C 170.990 249.318,171.410 249.318,171.667 249.250 C 171.923 249.183,171.713 249.129,171.200 249.129 C 170.687 249.129,170.477 249.183,170.733 249.250 M175.800 249.250 C 176.057 249.318,176.477 249.318,176.733 249.250 C 176.990 249.183,176.780 249.129,176.267 249.129 C 175.753 249.129,175.543 249.183,175.800 249.250 M183.010 249.264 C 183.858 249.317,185.178 249.317,185.943 249.263 C 186.708 249.209,186.013 249.166,184.400 249.166 C 182.787 249.167,182.161 249.211,183.010 249.264 M205.768 249.278 C 205.696 249.394,206.049 249.440,206.552 249.382 C 207.055 249.323,207.467 249.228,207.467 249.171 C 207.467 248.970,205.897 249.069,205.768 249.278 M228.867 249.250 C 229.123 249.318,229.543 249.318,229.800 249.250 C 230.057 249.183,229.847 249.129,229.333 249.129 C 228.820 249.129,228.610 249.183,228.867 249.250 M233.933 249.250 C 234.190 249.318,234.610 249.318,234.867 249.250 C 235.123 249.183,234.913 249.129,234.400 249.129 C 233.887 249.129,233.677 249.183,233.933 249.250 M240.467 249.260 C 240.943 249.319,241.723 249.319,242.200 249.260 C 242.677 249.200,242.287 249.152,241.333 249.152 C 240.380 249.152,239.990 249.200,240.467 249.260 M277.400 249.250 C 277.657 249.318,278.077 249.318,278.333 249.250 C 278.590 249.183,278.380 249.129,277.867 249.129 C 277.353 249.129,277.143 249.183,277.400 249.250 M282.467 249.250 C 282.723 249.318,283.143 249.318,283.400 249.250 C 283.657 249.183,283.447 249.129,282.933 249.129 C 282.420 249.129,282.210 249.183,282.467 249.250 M288.600 249.250 C 288.857 249.318,289.277 249.318,289.533 249.250 C 289.790 249.183,289.580 249.129,289.067 249.129 C 288.553 249.129,288.343 249.183,288.600 249.250 M146.336 250.855 C 146.668 250.919,147.148 250.917,147.403 250.850 C 147.658 250.783,147.387 250.731,146.800 250.734 C 146.213 250.737,146.005 250.791,146.336 250.855 M241.803 250.855 C 242.135 250.919,242.615 250.917,242.870 250.850 C 243.125 250.783,242.853 250.731,242.267 250.734 C 241.680 250.737,241.471 250.791,241.803 250.855 M184.194 253.792 C 184.667 253.851,185.507 253.852,186.061 253.795 C 186.614 253.737,186.227 253.689,185.200 253.688 C 184.173 253.686,183.721 253.734,184.194 253.792 M146.200 254.850 C 146.457 254.918,146.877 254.918,147.133 254.850 C 147.390 254.783,147.180 254.729,146.667 254.729 C 146.153 254.729,145.943 254.783,146.200 254.850 M241.667 254.850 C 241.923 254.918,242.343 254.918,242.600 254.850 C 242.857 254.783,242.647 254.729,242.133 254.729 C 241.620 254.729,241.410 254.783,241.667 254.850 M184.474 255.396 C 185.101 255.452,186.061 255.451,186.607 255.394 C 187.153 255.337,186.640 255.290,185.467 255.291 C 184.293 255.292,183.847 255.339,184.474 255.396 M291.000 255.394 C 291.550 255.452,292.450 255.452,293.000 255.394 C 293.550 255.337,293.100 255.290,292.000 255.290 C 290.900 255.290,290.450 255.337,291.000 255.394 " stroke="none" fill="#7b9c94" fill-rule="evenodd"></path><path id="path3" d="M192.639 239.200 C 192.639 241.327,192.681 242.197,192.731 241.133 C 192.782 240.070,192.782 238.330,192.731 237.267 C 192.681 236.203,192.639 237.073,192.639 239.200 M228.373 239.200 C 228.373 241.327,228.414 242.197,228.465 241.133 C 228.515 240.070,228.515 238.330,228.465 237.267 C 228.414 236.203,228.373 237.073,228.373 239.200 M109.706 253.067 C 109.706 255.193,109.747 256.063,109.798 255.000 C 109.849 253.937,109.849 252.197,109.798 251.133 C 109.747 250.070,109.706 250.940,109.706 253.067 M116.639 253.067 C 116.639 255.193,116.681 256.063,116.731 255.000 C 116.782 253.937,116.782 252.197,116.731 251.133 C 116.681 250.070,116.639 250.940,116.639 253.067 M134.495 251.600 C 134.494 252.920,134.539 253.494,134.595 252.875 C 134.651 252.256,134.651 251.176,134.596 250.475 C 134.541 249.774,134.495 250.280,134.495 251.600 M139.560 251.467 C 139.560 252.713,139.606 253.223,139.662 252.600 C 139.718 251.977,139.718 250.957,139.662 250.333 C 139.606 249.710,139.560 250.220,139.560 251.467 M154.506 253.067 C 154.506 255.193,154.547 256.063,154.598 255.000 C 154.649 253.937,154.649 252.197,154.598 251.133 C 154.547 250.070,154.506 250.940,154.506 253.067 M170.239 253.067 C 170.239 255.193,170.281 256.063,170.331 255.000 C 170.382 253.937,170.382 252.197,170.331 251.133 C 170.281 250.070,170.239 250.940,170.239 253.067 M177.173 253.067 C 177.173 255.193,177.214 256.063,177.265 255.000 C 177.315 253.937,177.315 252.197,177.265 251.133 C 177.214 250.070,177.173 250.940,177.173 253.067 M239.573 253.067 C 239.573 255.193,239.614 256.063,239.665 255.000 C 239.715 253.937,239.715 252.197,239.665 251.133 C 239.614 250.070,239.573 250.940,239.573 253.067 " stroke="none" fill="#6a8780" fill-rule="evenodd"></path><path id="path4" d="M312.106 148.533 C 312.106 150.660,312.147 151.530,312.198 150.467 C 312.249 149.403,312.249 147.663,312.198 146.600 C 312.147 145.537,312.106 146.407,312.106 148.533 M91.326 163.467 C 91.326 173.513,91.359 177.623,91.400 172.600 C 91.440 167.577,91.440 159.357,91.400 154.333 C 91.359 149.310,91.326 153.420,91.326 163.467 M304.659 163.467 C 304.659 173.513,304.693 177.623,304.733 172.600 C 304.774 167.577,304.774 159.357,304.733 154.333 C 304.693 149.310,304.659 153.420,304.659 163.467 M86.895 148.067 C 86.843 148.250,86.862 155.900,86.937 165.067 L 87.075 181.733 87.137 164.733 C 87.172 155.383,87.153 147.733,87.095 147.733 C 87.038 147.733,86.948 147.883,86.895 148.067 M273.133 235.384 C 273.390 235.451,273.810 235.451,274.067 235.384 C 274.323 235.317,274.113 235.262,273.600 235.262 C 273.087 235.262,272.877 235.317,273.133 235.384 M156.363 237.867 C 156.363 239.260,156.408 239.830,156.463 239.133 C 156.518 238.437,156.518 237.297,156.463 236.600 C 156.408 235.903,156.363 236.473,156.363 237.867 M161.428 237.733 C 161.427 239.053,161.472 239.627,161.528 239.008 C 161.584 238.389,161.585 237.309,161.530 236.608 C 161.475 235.907,161.429 236.413,161.428 237.733 M265.439 239.200 C 265.439 241.327,265.481 242.197,265.531 241.133 C 265.582 240.070,265.582 238.330,265.531 237.267 C 265.481 236.203,265.439 237.073,265.439 239.200 M281.706 239.200 C 281.706 241.327,281.747 242.197,281.798 241.133 C 281.849 240.070,281.849 238.330,281.798 237.267 C 281.747 236.203,281.706 237.073,281.706 239.200 M115.800 237.667 C 115.863 238.485,115.927 238.535,116.933 238.556 L 118.000 238.579 117.016 238.475 C 116.171 238.386,116.011 238.260,115.882 237.585 C 115.740 236.835,115.736 236.839,115.800 237.667 M126.729 237.600 C 126.729 238.113,126.783 238.323,126.850 238.067 C 126.918 237.810,126.918 237.390,126.850 237.133 C 126.783 236.877,126.729 237.087,126.729 237.600 M178.729 237.600 C 178.729 238.113,178.783 238.323,178.850 238.067 C 178.918 237.810,178.918 237.390,178.850 237.133 C 178.783 236.877,178.729 237.087,178.729 237.600 M220.635 239.867 C 220.636 241.627,220.679 242.312,220.731 241.390 C 220.783 240.467,220.783 239.027,220.730 238.190 C 220.677 237.352,220.635 238.107,220.635 239.867 M257.702 239.867 C 257.702 241.627,257.745 242.312,257.798 241.390 C 257.850 240.467,257.850 239.027,257.797 238.190 C 257.744 237.352,257.701 238.107,257.702 239.867 M134.462 239.200 C 134.462 239.713,134.517 239.923,134.584 239.667 C 134.651 239.410,134.651 238.990,134.584 238.733 C 134.517 238.477,134.462 238.687,134.462 239.200 M205.129 239.200 C 205.129 239.713,205.183 239.923,205.250 239.667 C 205.318 239.410,205.318 238.990,205.250 238.733 C 205.183 238.477,205.129 238.687,205.129 239.200 M194.173 240.867 C 194.215 243.138,194.326 242.876,194.458 240.200 C 194.499 239.356,194.443 238.666,194.333 238.666 C 194.223 238.667,194.151 239.657,194.173 240.867 M115.801 240.667 C 115.804 241.253,115.858 241.462,115.922 241.130 C 115.986 240.799,115.983 240.319,115.917 240.064 C 115.850 239.809,115.798 240.080,115.801 240.667 M126.734 240.667 C 126.737 241.253,126.791 241.462,126.855 241.130 C 126.919 240.799,126.917 240.319,126.850 240.064 C 126.783 239.809,126.731 240.080,126.734 240.667 M178.734 240.667 C 178.737 241.253,178.791 241.462,178.855 241.130 C 178.919 240.799,178.917 240.319,178.850 240.064 C 178.783 239.809,178.731 240.080,178.734 240.667 M163.000 249.250 C 163.257 249.318,163.677 249.318,163.933 249.250 C 164.190 249.183,163.980 249.129,163.467 249.129 C 162.953 249.129,162.743 249.183,163.000 249.250 M258.200 249.250 C 258.457 249.318,258.877 249.318,259.133 249.250 C 259.390 249.183,259.180 249.129,258.667 249.129 C 258.153 249.129,257.943 249.183,258.200 249.250 M268.600 249.250 C 268.857 249.318,269.277 249.318,269.533 249.250 C 269.790 249.183,269.580 249.129,269.067 249.129 C 268.553 249.129,268.343 249.183,268.600 249.250 M228.363 251.733 C 228.363 253.127,228.408 253.697,228.463 253.000 C 228.518 252.303,228.518 251.163,228.463 250.467 C 228.408 249.770,228.363 250.340,228.363 251.733 M233.428 251.600 C 233.427 252.920,233.472 253.494,233.528 252.875 C 233.584 252.256,233.585 251.176,233.530 250.475 C 233.475 249.774,233.429 250.280,233.428 251.600 M278.761 251.600 C 278.761 252.920,278.806 253.494,278.862 252.875 C 278.917 252.256,278.918 251.176,278.863 250.475 C 278.808 249.774,278.762 250.280,278.761 251.600 M283.829 251.733 C 283.829 253.127,283.874 253.697,283.929 253.000 C 283.984 252.303,283.984 251.163,283.929 250.467 C 283.874 249.770,283.829 250.340,283.829 251.733 M289.968 252.400 C 289.969 254.160,290.012 254.845,290.064 253.923 C 290.117 253.000,290.116 251.560,290.063 250.723 C 290.011 249.885,289.968 250.640,289.968 252.400 M145.680 252.000 C 145.680 252.807,145.730 253.137,145.791 252.733 C 145.852 252.330,145.852 251.670,145.791 251.267 C 145.730 250.863,145.680 251.193,145.680 252.000 M183.262 251.467 C 183.262 251.980,183.317 252.190,183.384 251.933 C 183.451 251.677,183.451 251.257,183.384 251.000 C 183.317 250.743,183.262 250.953,183.262 251.467 M120.595 253.067 C 120.595 253.580,120.650 253.790,120.717 253.533 C 120.784 253.277,120.784 252.857,120.717 252.600 C 120.650 252.343,120.595 252.553,120.595 253.067 M172.727 253.792 C 173.201 253.851,174.041 253.852,174.594 253.795 C 175.147 253.737,174.760 253.689,173.733 253.688 C 172.707 253.686,172.254 253.734,172.727 253.792 M183.267 254.533 C 183.270 255.120,183.325 255.329,183.389 254.997 C 183.452 254.665,183.450 254.185,183.383 253.930 C 183.316 253.675,183.264 253.947,183.267 254.533 M208.613 255.467 C 208.613 256.273,208.663 256.603,208.724 256.200 C 208.785 255.797,208.785 255.137,208.724 254.733 C 208.663 254.330,208.613 254.660,208.613 255.467 M145.673 255.733 C 145.673 256.393,145.725 256.663,145.788 256.333 C 145.852 256.003,145.852 255.463,145.788 255.133 C 145.725 254.803,145.673 255.073,145.673 255.733 " stroke="none" fill="#5c746c" fill-rule="evenodd"></path></g></svg>