<?xml version="1.0" standalone="no"?>
<!DOCTYPE svg PUBLIC "-//W3C//DTD SVG 20010904//EN"
 "http://www.w3.org/TR/2001/REC-SVG-20010904/DTD/svg10.dtd">
<svg version="1.0" xmlns="http://www.w3.org/2000/svg"
 width="378.000000pt" height="674.000000pt" viewBox="0 0 378.000000 674.000000"
 preserveAspectRatio="xMidYMid meet">

<g transform="translate(0.000000,674.000000) scale(0.100000,-0.100000)"
fill="#000000" stroke="none">
<path d="M0 3370 l0 -3370 1890 0 1890 0 0 3370 0 3370 -73 0 -74 0 37 -39
c21 -21 48 -61 61 -87 l24 -49 3 -2264 2 -2263 -63 58 c-66 62 -213 166 -285
203 -60 31 -273 115 -417 165 -177 62 -302 133 -399 229 -44 42 -77 79 -75 82
3 2 45 -5 94 -17 57 -13 142 -22 231 -25 l141 -5 -49 -81 c-59 -99 -62 -113
-15 -83 12 8 58 29 102 46 94 38 115 54 115 89 0 53 11 69 58 86 129 48 207
108 278 211 36 52 64 73 49 37 -30 -73 -31 -67 18 -165 27 -53 47 -107 47
-125 0 -44 15 -49 49 -15 25 24 30 39 36 105 9 90 2 149 -29 272 l-22 90 23
90 c13 50 30 131 38 180 14 85 14 91 -4 115 -32 44 -62 47 -138 15 -160 -69
-267 -169 -386 -361 -60 -97 -220 -271 -292 -318 -55 -35 -123 -43 -179 -22
-24 9 -47 23 -50 31 -3 9 6 7 30 -7 28 -16 47 -19 97 -16 57 3 69 8 122 50 55
42 112 98 175 172 l25 29 -33 -17 c-18 -10 -46 -16 -62 -14 l-30 3 43 45 c23
25 56 56 72 68 29 22 29 23 5 16 -14 -3 -45 -23 -70 -43 -61 -51 -82 -61 -129
-61 -78 0 -124 42 -57 53 18 3 89 31 157 62 102 48 129 56 163 53 41 -5 42 -4
101 70 72 89 130 138 236 195 l78 42 17 70 c37 148 18 321 -51 470 -21 46 -35
93 -39 138 -9 92 -41 172 -90 225 -22 24 -93 83 -156 130 -111 84 -262 209
-268 223 -2 3 6 9 18 12 29 8 25 24 -20 68 -22 22 -40 47 -40 55 0 26 -47 64
-79 64 -63 0 -64 10 -6 57 105 87 228 278 299 465 48 128 57 143 158 267 77
94 114 160 124 220 9 53 -5 53 -66 -1 -27 -25 -81 -57 -126 -77 -100 -42 -139
-72 -154 -116 -9 -26 -17 -35 -34 -35 -13 0 -31 -9 -41 -20 -24 -27 -73 -39
-129 -33 -37 5 -47 2 -52 -12 -9 -22 10 -37 68 -54 122 -37 145 -57 126 -113
-17 -51 -75 -106 -158 -148 -122 -61 -227 -76 -286 -39 l-34 21 35 32 c26 25
35 42 35 67 0 19 7 43 15 53 19 25 19 66 1 66 -7 0 -33 -11 -57 -24 -24 -14
-70 -36 -101 -50 l-56 -25 -89 78 c-142 125 -234 180 -348 206 -64 15 -97 14
-206 -6 l-56 -11 -53 40 c-37 28 -77 47 -129 61 -127 34 -176 36 -300 11 -98
-19 -123 -21 -199 -12 -48 6 -131 25 -185 42 -202 65 -328 75 -492 41 -93 -19
-244 -82 -301 -126 -18 -14 -35 -25 -39 -25 -3 0 -5 154 -3 343 3 339 3 342
27 391 14 27 41 66 61 87 l37 39 -69 0 -68 0 0 -3370z m3394 2678 c-37 -73
-86 -140 -170 -231 -83 -88 -120 -157 -135 -245 -13 -82 -40 -151 -95 -238
-54 -88 -70 -103 -79 -74 -8 26 -60 53 -87 44 -11 -3 -40 -21 -64 -39 -28 -22
-64 -38 -101 -45 -105 -21 -145 -45 -185 -110 -83 -133 -138 -142 -371 -66
-81 26 -152 46 -157 44 -6 -2 22 -14 62 -28 l73 -25 -77 -3 c-108 -4 -149 9
-202 65 -25 26 -75 65 -113 87 -37 23 -69 49 -71 60 -9 44 111 113 287 165 79
24 137 33 245 41 78 5 164 16 191 24 64 18 29 19 -55 1 -36 -7 -66 -12 -68
-10 -4 4 99 61 128 70 46 14 247 112 254 124 11 17 26 13 26 -8 0 -28 -52 -73
-120 -106 -33 -16 -60 -32 -60 -37 0 -8 33 3 81 28 40 20 49 11 19 -21 -33
-35 -100 -65 -145 -65 -59 0 -36 -10 61 -26 177 -28 288 -14 415 52 112 59
161 129 158 229 -1 22 -3 32 -6 23 -3 -13 -9 -16 -21 -9 -9 4 -47 16 -85 26
-37 10 -72 24 -78 31 -9 12 -1 14 48 14 56 0 84 11 121 47 7 7 22 13 33 13 15
0 19 -7 20 -32 1 -27 3 -25 9 14 12 72 39 100 148 157 54 27 118 68 143 90 24
21 45 35 47 31 2 -5 -9 -32 -24 -62z m-2549 -74 c83 -21 168 -41 189 -46 l39
-10 -49 -28 c-35 -20 -54 -25 -66 -19 -26 14 -35 10 -15 -5 17 -13 15 -16 -25
-44 -24 -17 -50 -37 -57 -46 -23 -27 -27 -18 -23 43 4 57 3 61 -28 90 -28 26
-30 30 -14 34 11 3 -16 5 -59 6 -90 1 -157 -18 -274 -79 -57 -30 -87 -40 -123
-40 -47 0 -78 -10 -175 -55 -27 -13 -74 -27 -102 -30 l-53 -7 0 55 c0 69 17
87 63 68 65 -27 93 -25 169 12 40 19 91 37 113 41 22 4 60 20 85 36 115 74
184 77 405 24z m-56 -78 c18 -16 21 -31 21 -92 l0 -72 -172 -159 c-210 -191
-333 -316 -399 -403 -57 -76 -159 -268 -199 -378 l-29 -77 -1 376 0 377 25 6
c14 4 42 22 63 40 52 48 155 106 187 106 14 0 72 20 128 44 56 24 117 47 135
51 17 4 32 10 32 14 0 13 -24 31 -41 31 -10 0 -19 5 -21 11 -7 20 -84 13 -123
-10 -51 -30 -54 -26 -14 15 48 51 79 64 149 64 62 0 76 11 43 36 -23 16 -13
25 34 35 65 13 159 5 182 -15z m-302 -124 c8 -5 -9 -18 -48 -36 -65 -30 -77
-47 -15 -21 21 9 48 14 60 12 16 -3 9 -9 -34 -29 -70 -32 -160 -62 -167 -55
-11 12 15 38 77 77 87 57 107 65 127 52z m141 -324 c-35 -40 -94 -111 -130
-158 -58 -75 -104 -132 -241 -291 l-37 -44 39 80 c60 122 147 230 293 364 73
66 135 121 136 121 2 0 -25 -33 -60 -72z m1030 -265 c26 -14 73 -51 104 -80
57 -54 109 -83 147 -83 14 0 22 -9 27 -27 16 -77 39 -120 90 -170 66 -63 126
-93 185 -93 43 0 46 -2 76 -52 66 -111 144 -284 159 -358 22 -102 13 -193 -36
-374 -64 -236 -80 -330 -80 -464 0 -115 -1 -122 -34 -193 -76 -163 -220 -342
-328 -406 -45 -27 -206 -81 -212 -71 -1 2 -19 39 -41 83 -34 71 -55 97 -195
236 -86 86 -190 181 -231 211 -90 67 -179 186 -245 328 -25 52 -65 134 -89
182 -25 48 -45 92 -45 97 0 6 12 11 28 11 15 0 33 4 40 8 8 5 32 -1 62 -16 62
-31 144 -35 183 -9 15 10 27 23 27 29 0 6 -8 4 -18 -5 -10 -10 -32 -17 -49
-17 -30 0 -83 33 -83 51 0 15 47 10 54 -6 7 -20 53 -19 64 1 13 23 86 9 77
-15 -5 -13 -4 -14 6 -3 16 15 33 16 24 2 -4 -6 -30 -23 -58 -37 -46 -24 -62
-27 -144 -26 -51 0 -93 -3 -93 -8 0 -5 7 -6 15 -3 10 4 15 0 15 -10 0 -14 3
-14 21 -4 18 11 23 11 27 -1 4 -11 6 -11 13 0 7 11 9 10 9 -4 0 -10 5 -15 10
-12 6 4 8 10 5 15 -3 4 6 7 20 5 14 -1 25 2 25 6 0 14 28 11 33 -3 3 -8 6 -5
6 5 1 15 6 17 29 13 18 -4 34 -1 47 9 20 16 19 16 -2 6 -44 -22 -47 -9 -3 14
53 28 70 31 70 10 0 -8 5 -15 11 -15 16 0 0 41 -27 71 -24 25 -33 56 -14 44 6
-3 10 -2 10 2 0 13 -99 71 -159 94 -54 20 -94 26 -51 7 14 -6 51 -23 84 -37
45 -19 54 -26 40 -31 -14 -5 -9 -9 19 -14 23 -4 37 -12 34 -19 -6 -18 -46 -17
-57 2 -7 13 -9 13 -10 1 0 -10 -3 -11 -11 -3 -6 6 -19 9 -28 6 -14 -4 -14 -3
-1 6 8 6 11 11 5 12 -5 0 -1 4 10 9 38 16 -108 11 -170 -7 -33 -9 -70 -16 -82
-16 -29 1 -29 -10 -1 -29 l22 -15 -27 -5 c-22 -4 -25 -3 -16 8 17 20 -6 18
-26 -2 -11 -12 -20 -13 -27 -6 -7 7 10 40 55 106 120 174 105 163 213 165 51
1 122 -3 156 -9 l63 -12 27 33 c16 18 28 40 28 49 -1 8 -7 3 -16 -12 -19 -36
-25 -35 -14 2 5 19 5 28 -1 25 -5 -4 -9 1 -9 10 0 9 -4 14 -8 11 -10 -6 -221
10 -228 17 -3 3 6 28 20 55 34 66 60 167 87 327 23 135 81 310 122 361 11 15
35 33 53 40 28 12 39 11 74 -1 39 -14 43 -13 63 5 11 11 22 20 25 20 2 0 24
-12 50 -27z m1060 -103 c158 -10 186 -20 197 -68 3 -16 19 -42 35 -57 17 -16
30 -32 30 -36 0 -14 -67 -19 -142 -10 -56 6 -97 19 -151 45 l-75 37 -63 -16
c-99 -26 -185 -30 -275 -12 -89 18 -247 38 -253 31 -13 -12 50 -55 115 -79 81
-30 100 -49 84 -89 -5 -14 -7 -33 -3 -42 5 -13 2 -15 -18 -9 -48 14 -96 54
-134 111 -49 73 -58 84 -49 59 30 -82 143 -185 204 -185 11 0 20 -4 20 -10 0
-5 -16 -10 -35 -10 -95 0 -221 123 -251 244 l-7 29 99 -6 c54 -3 135 -13 179
-22 100 -19 233 -19 304 -1 29 8 55 17 57 19 3 2 -14 16 -37 31 -22 15 -39 29
-37 31 2 3 38 -9 79 -25 40 -16 83 -29 94 -29 11 0 -15 14 -57 30 -43 17 -78
35 -78 40 0 11 -10 11 168 -1z m-1479 -406 c-24 -112 -61 -217 -89 -254 -32
-42 -33 -15 -2 46 29 57 82 213 97 282 4 18 9 31 11 29 3 -2 -5 -49 -17 -103z
m1966 -88 c103 -67 154 -117 183 -179 28 -59 30 -95 4 -52 -11 17 -59 66 -108
110 -49 44 -93 85 -99 91 -62 65 -78 84 -71 84 4 0 45 -24 91 -54z m-2501
-532 c2 -232 5 -283 24 -369 28 -127 93 -335 105 -335 5 0 7 6 4 14 -71 185
-113 391 -122 598 -7 150 -6 158 14 184 11 15 21 38 21 53 1 19 3 22 9 11 20
-35 23 -60 7 -60 -38 0 4 -205 99 -485 35 -104 66 -203 68 -220 3 -25 4 -24 6
9 0 25 -22 108 -64 231 -35 105 -71 220 -78 256 -13 63 -13 67 6 78 16 10 18
20 14 53 -5 40 70 -104 205 -393 47 -100 123 -218 180 -280 18 -20 67 -62 108
-95 98 -78 324 -306 365 -369 85 -132 91 -231 30 -507 -27 -126 -43 -179 -54
-184 -9 -3 -54 -8 -101 -11 -97 -5 -207 19 -264 58 l-33 22 15 56 c8 31 16 88
16 126 1 84 -12 111 -140 280 -112 149 -213 244 -388 368 -46 32 -57 69 -66
220 -9 139 -36 407 -45 437 -14 47 -25 235 -19 312 6 80 9 90 29 98 27 10 35
29 35 82 0 23 2 39 5 36 3 -3 7 -127 9 -274z m-556 106 c163 -77 256 -144 313
-226 51 -75 32 -119 -57 -131 -27 -3 -69 -15 -94 -25 -34 -15 -64 -19 -126
-17 -82 3 -82 3 -123 -34 -23 -20 -43 -37 -45 -37 -3 0 -5 110 -5 245 -1 268
-5 256 56 218 31 -20 35 -39 18 -80 -22 -53 -19 -86 13 -115 38 -38 76 -50
162 -52 41 -2 93 -6 115 -10 28 -5 46 -3 59 7 17 13 17 15 2 45 -28 54 -154
139 -301 204 -44 19 -91 40 -105 47 -25 11 -24 11 5 5 17 -3 67 -23 113 -44z
m1046 -85 c-7 -18 -26 -19 -42 -3 -9 9 -12 9 -12 0 0 -16 -30 -16 -30 1 0 6
-5 4 -11 -6 -8 -14 -14 -16 -25 -6 -11 9 -14 9 -14 -1 0 -7 -7 -10 -15 -6 -8
3 -15 1 -15 -4 0 -5 -8 -6 -17 -3 -25 10 78 40 139 42 38 0 46 -2 42 -14z m13
-71 c-3 -3 -12 -4 -19 -1 -8 3 -5 6 6 6 11 1 17 -2 13 -5z m1237 -86 c-10
-172 -46 -363 -89 -473 -15 -39 -15 -36 -11 90 3 112 9 152 45 290 23 88 44
166 46 173 11 32 14 4 9 -80z m-1354 52 c32 -34 28 -36 -23 -15 -43 18 -54 32
-30 38 10 3 20 5 21 6 2 0 17 -12 32 -29z m2560 -388 c22 -18 22 -20 12 -129
-7 -65 -20 -132 -32 -164 -25 -63 -23 -108 9 -214 32 -105 30 -276 -4 -322
-24 -32 -27 -6 -10 72 19 83 15 157 -11 207 -22 42 -34 34 -34 -24 -1 -29 -7
-66 -14 -83 l-12 -30 -17 26 c-16 23 -16 30 -2 75 31 103 7 134 -53 66 -21
-22 -53 -45 -73 -52 -20 -6 -61 -30 -92 -53 -30 -23 -78 -55 -107 -70 -36 -19
-56 -38 -65 -61 -20 -47 -30 -53 -130 -71 -184 -35 -384 -3 -705 114 -31 11
-86 25 -123 31 -37 7 -67 16 -67 22 0 20 67 91 102 109 22 11 58 19 86 19 55
0 93 -22 174 -103 26 -25 57 -51 70 -57 13 -7 -17 28 -65 76 -48 48 -84 91
-80 94 4 4 26 13 48 20 22 7 55 24 73 37 47 35 60 19 72 -86 11 -96 59 -201
83 -179 1 2 18 -7 38 -20 29 -18 51 -22 110 -22 106 0 136 12 199 75 54 55 54
55 41 88 -23 55 -25 96 -6 103 9 4 21 2 28 -5 6 -6 32 -11 58 -11 42 0 54 5
100 45 47 40 99 65 137 65 25 0 65 34 78 67 8 18 14 54 14 80 0 30 8 63 21 87
11 22 19 51 17 70 -3 27 -8 32 -37 36 -33 5 -33 5 45 47 44 24 84 43 90 43 7
0 22 -8 34 -18z m-3502 -598 c-5 -20 -8 -61 -6 -91 2 -45 1 -51 -9 -36 -17 23
-16 86 1 128 19 46 27 45 14 -1z m442 -175 c36 -14 80 -23 125 -24 48 -1 84
-8 115 -23 25 -12 56 -22 68 -22 35 0 22 -22 -28 -47 -42 -22 -55 -23 -300
-23 -226 0 -264 -2 -329 -20 -72 -20 -136 -49 -198 -91 l-33 -21 0 159 0 158
20 -32 c10 -18 36 -41 57 -51 47 -24 182 -53 212 -45 22 6 22 6 3 27 -27 29
-52 81 -52 106 0 29 13 24 31 -13 9 -17 30 -42 48 -54 39 -26 126 -53 172 -53
33 0 33 0 11 16 -29 20 -52 66 -52 104 l0 31 38 -30 c20 -16 62 -40 92 -52z
m2540 -88 c0 -31 -6 -44 -26 -60 -32 -25 -46 -27 -37 -4 5 12 -2 10 -28 -9
-39 -29 -93 -58 -109 -58 -15 0 47 85 92 126 39 35 83 49 58 19 -6 -8 -10 -20
-8 -27 3 -7 13 2 23 20 25 42 35 40 35 -7z m-2506 -1520 c33 -31 33 -56 -2
-90 l-28 -28 28 -16 c38 -22 52 -61 36 -95 -19 -39 -54 -52 -140 -52 l-78 0 0
156 0 156 79 -3 c67 -4 83 -8 105 -28z m557 -46 c28 -41 53 -75 54 -75 12 0
65 99 65 122 0 24 4 28 30 28 17 0 30 -3 30 -7 0 -3 -25 -39 -55 -79 l-55 -73
0 -76 c0 -73 -1 -75 -25 -75 -24 0 -25 2 -25 69 0 66 -1 70 -53 142 -74 103
-72 99 -43 99 20 0 36 -16 77 -75z m-280 -32 c10 -10 19 -31 21 -48 l3 -30
-82 -3 -83 -3 0 -28 c0 -16 10 -41 21 -56 19 -23 28 -26 58 -22 20 3 47 8 61
13 22 7 24 6 11 -9 -34 -42 -144 -29 -177 21 -27 41 -24 115 7 148 13 14 33
30 44 35 30 13 95 3 116 -18z m623 8 c55 -36 71 -102 41 -161 -42 -81 -171
-77 -210 7 -51 108 71 218 169 154z m156 -75 c0 -106 4 -116 44 -116 58 1 68
18 64 114 -3 86 -3 86 22 86 l25 0 -3 -100 c-3 -97 -3 -100 19 -100 18 0 19
-2 9 -15 -16 -19 -39 -19 -61 1 -16 15 -20 15 -41 0 -28 -20 -68 -21 -94 -2
-16 12 -20 30 -24 115 -5 100 -5 101 18 101 21 0 22 -4 22 -84z m-950 -496 l0
-68 -42 2 c-37 1 -44 5 -52 28 -13 36 16 72 51 63 20 -5 23 -2 23 25 0 18 4
29 10 25 6 -3 10 -37 10 -75z m870 45 c0 -18 4 -22 20 -18 27 7 50 -14 50 -46
0 -36 -17 -51 -57 -51 l-33 0 0 76 c0 47 4 73 10 69 6 -3 10 -17 10 -30z m221
12 c-13 -13 -26 -3 -16 12 3 6 11 8 17 5 6 -4 6 -10 -1 -17z m829 -58 c0 -39
-4 -69 -10 -69 -6 0 -10 32 -10 76 0 47 4 73 10 69 6 -3 10 -37 10 -76z
m-2125 61 c-3 -5 -15 -10 -26 -10 -17 0 -19 -7 -19 -60 0 -33 -4 -60 -10 -60
-6 0 -10 27 -10 60 0 53 -2 60 -19 60 -11 0 -23 5 -26 10 -4 6 17 10 55 10 38
0 59 -4 55 -10z m805 -4 c0 -7 -8 -20 -17 -27 -16 -13 -17 -12 -4 4 9 11 10
17 2 17 -6 0 -11 5 -11 10 0 6 7 10 15 10 8 0 15 -6 15 -14z m-726 -49 c20
-30 10 -66 -22 -74 -34 -8 -56 8 -60 43 -6 50 55 74 82 31z m210 17 c11 -4 16
-19 16 -51 l0 -44 -37 3 c-50 4 -58 34 -14 51 37 14 42 32 6 23 -25 -6 -36 8
-12 17 18 8 23 8 41 1z m68 -26 l15 -33 17 34 c10 18 20 30 23 27 8 -7 -48
-136 -59 -136 -10 0 -10 11 1 29 6 9 2 30 -10 58 -22 51 -22 53 -11 53 5 0 15
-15 24 -32z m185 2 c7 -39 16 -38 31 3 12 31 13 31 27 13 8 -11 15 -26 15 -33
0 -25 18 -13 25 17 4 17 11 30 16 30 12 0 12 2 -7 -53 -9 -26 -20 -47 -25 -47
-5 0 -15 15 -22 32 l-13 33 -12 -33 c-18 -53 -36 -39 -56 41 -4 16 -2 27 4 27
6 0 13 -13 17 -30z m211 18 c7 -7 12 -20 12 -30 0 -14 -8 -18 -37 -18 -35 0
-36 -1 -21 -17 14 -14 20 -14 33 -3 17 14 31 8 20 -9 -9 -15 -58 -14 -73 1
-17 17 -15 48 5 70 19 21 44 23 61 6z m122 3 c0 -3 -9 -12 -20 -19 -13 -8 -20
-23 -20 -42 0 -17 -4 -30 -10 -30 -9 0 -15 82 -6 91 7 7 56 7 56 0z m88 -3 c7
-7 12 -20 12 -30 0 -14 -8 -18 -37 -18 -35 0 -36 -1 -21 -17 14 -14 20 -14 33
-3 8 7 19 10 22 6 10 -10 -17 -26 -42 -26 -43 0 -60 47 -28 82 19 21 44 23 61
6z m276 -4 c27 -27 20 -44 -19 -44 -19 0 -35 -4 -35 -9 0 -14 32 -23 44 -11
16 16 30 12 16 -5 -15 -18 -51 -20 -68 -3 -18 18 -15 65 6 77 24 15 38 13 56
-5z m56 -34 c0 -27 -4 -50 -10 -50 -11 0 -14 83 -3 93 12 12 13 8 13 -43z
m110 30 c13 -19 13 -80 1 -80 -6 0 -11 17 -13 38 -2 29 -7 37 -23 37 -16 0
-21 -8 -23 -37 -2 -21 -7 -38 -13 -38 -9 0 -13 82 -4 91 10 11 67 3 75 -11z
m120 -40 c0 -60 -11 -80 -46 -80 -24 0 -51 26 -39 38 4 4 10 1 12 -5 6 -18 53
-17 53 1 0 8 -11 14 -26 14 -28 0 -44 16 -44 44 0 26 27 47 60 46 30 -1 30 -2
30 -58z m151 50 c22 -12 26 -59 7 -78 -7 -7 -25 -12 -40 -12 -38 0 -56 41 -33
76 17 26 35 30 66 14z m71 -68 c17 -20 38 5 38 45 0 20 4 32 10 28 6 -3 10
-26 10 -51 0 -44 0 -44 -35 -44 -37 0 -55 20 -55 63 0 38 15 42 18 5 2 -18 8
-39 14 -46z m138 68 c0 -4 -7 -10 -15 -14 -9 -3 -15 -19 -15 -41 0 -19 -4 -35
-10 -35 -5 0 -10 21 -10 48 0 43 2 47 25 48 14 1 25 -2 25 -6z m77 -7 c3 -7
-3 -9 -16 -6 -12 3 -21 1 -21 -6 0 -6 4 -11 8 -11 20 0 43 -27 36 -43 -8 -23
-64 -24 -64 -1 0 14 3 14 15 4 12 -10 19 -10 27 -2 8 8 4 14 -15 21 -26 10
-36 39 -20 55 11 10 46 3 50 -11z m107 -5 c20 -28 12 -38 -32 -38 -33 0 -35
-1 -20 -16 13 -13 20 -14 38 -4 18 10 21 9 18 -2 -3 -7 -19 -14 -36 -16 -26
-3 -34 1 -43 22 -10 20 -9 30 5 51 20 31 50 32 70 3z m107 -15 l13 -38 14 38
c8 20 19 37 24 37 6 0 8 -6 5 -12 -2 -7 -10 -30 -18 -50 -17 -49 -33 -48 -53
5 -18 49 -19 57 -7 57 5 0 15 -17 22 -37z m147 25 c7 -7 12 -20 12 -30 0 -14
-8 -18 -37 -18 -35 0 -36 -1 -21 -17 14 -14 20 -14 33 -3 8 7 19 10 22 6 10
-10 -17 -26 -42 -26 -43 0 -60 47 -28 82 19 21 44 23 61 6z m86 6 c26 -10 18
-25 -9 -18 -31 8 -33 -8 -2 -21 30 -14 29 -49 -2 -53 -24 -4 -50 13 -38 25 4
4 13 1 19 -5 16 -16 28 -15 28 2 0 8 -11 17 -25 20 -27 7 -32 25 -13 44 14 14
20 14 42 6z m-1966 -100 c-1 -9 -10 -20 -18 -22 -13 -4 -13 -3 -2 10 10 13 10
17 1 20 -7 2 -9 10 -5 17 11 17 29 -1 24 -25z m2029 10 c-9 -9 -28 6 -21 18 4
6 10 6 17 -1 6 -6 8 -13 4 -17z"/>
<path d="M3016 5767 c3 -10 9 -15 12 -12 3 3 0 11 -7 18 -10 9 -11 8 -5 -6z"/>
<path d="M2052 5430 c-34 -4 -66 -11 -70 -15 -4 -4 6 -5 21 -1 23 6 28 4 25
-10 -2 -10 -28 -25 -68 -40 -71 -25 -90 -44 -90 -86 0 -37 30 -54 106 -61 33
-4 85 -17 115 -31 29 -14 78 -28 106 -32 52 -6 53 -6 100 40 37 37 62 51 117
68 121 36 182 76 174 114 -2 14 -21 21 -88 31 -228 34 -315 38 -448 23z"/>
<path d="M1770 5171 c0 -19 26 -41 49 -41 22 0 10 26 -19 43 -29 18 -30 18
-30 -2z"/>
<path d="M2040 4499 c-94 -18 -220 -62 -220 -77 0 -7 -9 -16 -20 -19 -24 -6
-25 -16 -3 -34 15 -12 16 -12 8 1 -4 8 3 5 16 -6 l24 -21 100 38 c183 70 236
73 373 19 42 -17 84 -34 92 -37 36 -14 -90 100 -134 122 -54 27 -143 32 -236
14z"/>
<path d="M2051 4305 c-68 -25 -172 -91 -179 -113 -2 -8 18 3 44 24 56 43 114
70 199 95 44 13 52 18 30 18 -16 0 -59 -11 -94 -24z"/>
<path d="M2267 4244 c-3 -3 -61 -7 -129 -8 -103 -2 -131 -6 -172 -24 -27 -13
-46 -25 -43 -28 3 -3 19 2 37 11 34 17 60 14 60 -7 0 -9 -3 -8 -10 2 -7 10
-10 11 -10 2 0 -12 -47 -37 -62 -34 -5 1 -8 -2 -8 -7 0 -5 -9 -7 -20 -4 -12 3
-20 0 -20 -6 0 -7 5 -9 12 -5 6 4 0 -8 -15 -28 -15 -19 -26 -46 -26 -59 1 -17
3 -19 6 -6 2 9 7 17 11 17 7 0 120 -30 142 -37 8 -3 31 -6 50 -8 19 -1 43 -5
53 -10 14 -6 16 -4 11 11 -4 11 -4 16 1 12 4 -4 14 -3 21 3 9 7 19 7 34 -1 20
-11 21 -10 15 9 -7 23 4 28 23 9 9 -9 12 -9 12 0 0 22 -29 25 -72 7 -23 -9
-67 -17 -98 -17 -59 -1 -160 26 -160 43 0 6 9 5 21 -1 11 -6 25 -9 32 -6 7 2
5 5 -5 5 -29 2 -30 21 -3 31 23 9 32 6 61 -20 40 -35 100 -40 160 -15 20 8 54
13 76 11 25 -3 36 -1 28 4 -10 6 -7 9 11 13 23 4 23 4 2 6 -13 0 -23 6 -23 11
0 6 10 10 23 10 12 1 38 9 57 20 31 17 32 19 11 20 -17 0 -22 4 -17 16 4 12 2
15 -9 10 -8 -3 -15 -1 -15 4 0 5 -10 10 -22 12 -16 2 -22 9 -20 21 3 18 0 21
-11 11z m-187 -24 c0 -5 -10 -14 -21 -21 -17 -9 -23 -8 -30 2 -5 9 -2 16 9 21
25 10 42 9 42 -2z m80 0 c0 -5 -8 -10 -17 -10 -10 0 -28 -3 -41 -6 -18 -5 -21
-3 -16 10 7 18 74 23 74 6z m30 0 c0 -5 -4 -10 -10 -10 -5 0 -10 5 -10 10 0 6
5 10 10 10 6 0 10 -4 10 -10z m39 -4 c10 -12 8 -13 -8 -9 -12 3 -18 9 -15 14
7 12 10 11 23 -5z m51 -16 c0 -5 -7 -10 -15 -10 -8 0 -15 5 -15 10 0 6 7 10
15 10 8 0 15 -4 15 -10z m-50 -59 l24 -7 -29 -20 c-17 -12 -38 -24 -47 -27
-15 -5 -16 -2 -8 18 6 15 6 27 0 30 -6 4 -10 1 -10 -4 0 -21 -40 -51 -68 -51
-30 0 -76 35 -67 51 9 14 26 11 46 -7 12 -11 25 -14 36 -9 17 8 17 8 1 12 -10
3 -18 9 -18 14 0 10 102 11 140 0z"/>
<path d="M1381 4144 c59 -63 87 -105 110 -162 10 -27 18 -38 19 -26 1 49 -81
173 -143 215 -27 19 -25 15 14 -27z"/>
<path d="M1830 4094 c-6 -15 -7 -32 -1 -41 6 -12 10 -5 13 25 4 49 1 52 -12
16z"/>
<path d="M1385 4032 c4 -8 11 -26 15 -40 7 -22 8 -23 9 -6 1 11 -6 29 -15 40
-8 10 -12 13 -9 6z"/>
<path d="M1945 4020 c11 -5 29 -8 40 -8 16 0 15 2 -5 8 -34 11 -60 11 -35 0z"/>
<path d="M956 3941 c-4 -5 4 -7 16 -3 20 5 21 3 10 -11 -12 -14 -11 -15 11 -4
14 6 23 15 21 19 -7 11 -52 10 -58 -1z"/>
<path d="M990 3876 c0 -2 23 -37 50 -77 59 -86 67 -79 11 8 -34 53 -61 84 -61
69z"/>
<path d="M1756 3544 c-58 -41 -77 -42 -142 -9 -48 24 -74 26 -74 6 0 -16 57
-42 107 -48 56 -7 118 12 156 46 56 51 24 55 -47 5z"/>
<path d="M1747 3368 c-26 -19 -32 -19 -66 -8 -53 17 -100 -1 -171 -66 l-25
-23 -45 45 c-25 25 -54 51 -65 56 -11 6 27 -38 85 -99 58 -60 107 -108 109
-106 2 1 -2 10 -10 20 -13 15 -12 16 6 9 55 -22 96 -28 157 -23 81 7 148 35
174 72 11 15 27 36 37 47 18 19 18 20 0 34 -29 24 -116 64 -138 64 -11 -1 -33
-10 -48 -22z"/>
<path d="M2760 4981 c13 -10 99 -16 89 -7 -2 2 -26 6 -54 10 -36 5 -46 4 -35
-3z"/>
<path d="M926 3368 c-4 -15 -5 -36 -1 -48 8 -24 44 -60 59 -60 6 0 0 9 -13 19
-18 14 -27 33 -31 67 -6 44 -7 46 -14 22z"/>
<path d="M837 3293 c-13 -12 -7 -79 9 -99 14 -18 15 -18 7 6 -4 14 -8 42 -8
63 0 20 0 37 -1 37 0 0 -4 -3 -7 -7z"/>
<path d="M870 3156 c0 -2 26 -23 58 -47 31 -24 94 -79 140 -122 46 -44 85 -77
88 -75 7 8 -143 151 -212 203 -54 40 -74 52 -74 41z"/>
<path d="M1565 2560 c-15 -16 -19 -40 -21 -108 l-3 -87 8 82 c5 48 15 93 25
108 20 30 16 32 -9 5z"/>
<path d="M245 3830 c-8 -13 20 -24 40 -16 8 3 15 10 15 16 0 13 -47 13 -55 0z"/>
<path d="M3587 3373 c-3 -16 -3 -32 0 -36 9 -14 33 15 33 39 0 33 -26 30 -33
-3z"/>
<path d="M490 1150 l0 -60 38 0 c45 0 72 24 72 63 0 32 -33 57 -77 57 l-33 0
0 -60z"/>
<path d="M490 1005 l0 -65 43 0 c74 0 108 51 67 103 -18 22 -30 27 -66 27
l-44 0 0 -65z"/>
<path d="M781 1109 c-35 -38 -27 -49 34 -49 42 0 57 4 62 16 18 47 -59 72 -96
33z"/>
<path d="M1410 1110 c-37 -37 -22 -140 24 -172 24 -17 65 -8 85 18 25 32 26
60 5 114 -25 61 -75 79 -114 40z"/>
<path d="M657 563 c-12 -11 -7 -40 9 -53 21 -18 49 9 39 39 -6 20 -34 28 -48
14z"/>
<path d="M1607 564 c-12 -12 -8 -52 6 -57 22 -8 39 8 35 34 -3 23 -27 37 -41
23z"/>
<path d="M547 563 c-13 -12 -7 -51 9 -57 22 -8 22 -8 34 15 17 30 -20 66 -43
42z"/>
<path d="M773 518 c2 -7 10 -13 17 -13 7 0 15 6 18 13 2 7 -5 12 -18 12 -13 0
-20 -5 -17 -12z"/>
<path d="M1225 560 c-4 -6 5 -10 19 -10 14 0 26 5 26 10 0 6 -9 10 -19 10 -11
0 -23 -4 -26 -10z"/>
<path d="M1435 560 c-4 -6 5 -10 20 -10 15 0 24 4 20 10 -3 6 -12 10 -20 10
-8 0 -17 -4 -20 -10z"/>
<path d="M1715 560 c-4 -6 5 -10 20 -10 15 0 24 4 20 10 -3 6 -12 10 -20 10
-8 0 -17 -4 -20 -10z"/>
<path d="M1984 556 c-9 -24 4 -48 23 -44 24 4 24 52 0 56 -9 2 -20 -4 -23 -12z"/>
<path d="M2147 556 c-13 -32 16 -63 42 -46 7 4 11 18 9 31 -4 28 -42 39 -51
15z"/>
<path d="M2535 560 c-4 -6 5 -10 19 -10 14 0 26 5 26 10 0 6 -9 10 -19 10 -11
0 -23 -4 -26 -10z"/>
<path d="M2795 560 c-4 -6 5 -10 20 -10 15 0 24 4 20 10 -3 6 -12 10 -20 10
-8 0 -17 -4 -20 -10z"/>
</g>
</svg>
