<svg id="svg" version="1.1" xmlns="http://www.w3.org/2000/svg" xmlns:xlink="http://www.w3.org/1999/xlink" width="400" height="400" viewBox="0, 0, 400,400"><g id="svgg"><path id="path0" d="M0.000 199.879 L 0.000 399.758 51.719 399.758 L 103.437 399.758 103.592 398.126 C 103.677 397.228,104.071 394.426,104.467 391.898 L 105.187 387.304 104.105 370.859 C 103.510 361.814,102.793 351.203,102.512 347.279 C 101.665 335.458,102.582 333.015,108.109 332.360 C 109.537 332.191,109.484 332.483,108.721 329.021 C 107.594 323.903,108.158 319.666,110.326 316.958 L 111.077 316.020 110.681 314.902 C 106.168 302.149,111.657 282.538,119.759 282.472 C 121.428 282.458,121.560 282.225,121.713 278.998 C 122.180 269.147,127.279 262.893,136.050 261.415 C 136.972 261.259,137.856 261.096,138.013 261.051 C 138.203 260.998,138.068 260.536,137.616 259.687 C 131.817 248.800,131.791 234.143,137.545 218.742 C 151.004 182.716,168.044 165.425,197.098 158.312 C 223.977 151.731,245.234 156.726,258.091 172.645 C 265.530 181.855,272.795 199.467,275.459 214.752 C 277.687 227.536,281.652 236.947,289.364 247.763 C 296.686 258.032,297.781 266.862,293.293 279.444 C 288.544 292.759,290.057 302.482,298.699 314.182 C 304.239 321.684,305.683 325.276,305.683 331.560 C 305.683 341.576,299.088 353.374,288.076 363.059 L 286.550 364.400 287.037 367.025 C 288.350 374.098,289.716 386.516,290.339 397.037 L 290.500 399.758 345.129 399.758 L 399.758 399.758 399.758 199.879 L 399.758 0.000 199.879 0.000 L 0.000 0.000 0.000 199.879 M289.588 96.025 C 291.176 96.620,292.809 98.151,293.628 99.814 L 294.196 100.967 294.261 117.138 L 294.327 133.308 293.753 134.561 C 292.923 136.376,291.833 137.489,290.009 138.387 L 288.402 139.178 193.236 139.240 C 131.809 139.280,97.615 139.218,96.787 139.065 C 94.316 138.608,92.322 137.143,91.129 134.908 L 90.568 133.857 90.501 117.797 C 90.424 99.363,90.324 100.340,92.529 97.958 C 93.901 96.476,95.088 95.833,96.956 95.561 C 97.543 95.475,140.824 95.432,193.137 95.465 L 288.250 95.525 289.588 96.025 M126.424 103.920 C 126.724 103.977,127.160 103.975,127.391 103.915 C 127.622 103.854,127.376 103.807,126.844 103.809 C 126.312 103.812,126.123 103.862,126.424 103.920 M184.341 108.026 C 184.574 108.087,184.955 108.087,185.187 108.026 C 185.420 107.966,185.230 107.916,184.764 107.916 C 184.299 107.916,184.108 107.966,184.341 108.026 M154.395 113.664 C 154.395 116.391,154.430 117.506,154.473 116.143 C 154.516 114.779,154.516 112.548,154.473 111.185 C 154.430 109.822,154.395 110.937,154.395 113.664 M156.334 115.840 C 156.334 119.764,156.368 121.369,156.408 119.407 C 156.449 117.446,156.449 114.235,156.408 112.273 C 156.368 110.311,156.334 111.917,156.334 115.840 M181.703 112.817 C 181.704 113.881,181.747 114.287,181.798 113.718 C 181.849 113.149,181.848 112.278,181.796 111.783 C 181.744 111.288,181.702 111.753,181.703 112.817 M172.270 112.938 C 172.270 113.936,172.313 114.344,172.365 113.845 C 172.417 113.346,172.417 112.530,172.365 112.031 C 172.313 111.533,172.270 111.941,172.270 112.938 M212.899 112.938 C 212.899 113.936,212.941 114.344,212.994 113.845 C 213.046 113.346,213.046 112.530,212.994 112.031 C 212.941 111.533,212.899 111.941,212.899 112.938 M146.387 114.268 C 146.388 115.067,146.433 115.364,146.487 114.929 C 146.541 114.494,146.540 113.842,146.485 113.478 C 146.430 113.115,146.386 113.470,146.387 114.268 M151.391 115.478 C 152.515 116.608,153.490 117.533,153.556 117.533 C 153.623 117.533,152.757 116.608,151.632 115.478 C 150.508 114.347,149.533 113.422,149.467 113.422 C 149.400 113.422,150.266 114.347,151.391 115.478 M176.398 118.501 C 176.398 120.695,176.435 121.593,176.480 120.496 C 176.525 119.398,176.525 117.603,176.480 116.505 C 176.435 115.408,176.398 116.306,176.398 118.501 M189.941 118.501 C 189.941 120.695,189.978 121.593,190.023 120.496 C 190.068 119.398,190.068 117.603,190.023 116.505 C 189.978 115.408,189.941 116.306,189.941 118.501 M209.288 118.501 C 209.288 120.695,209.325 121.593,209.370 120.496 C 209.415 119.398,209.415 117.603,209.370 116.505 C 209.325 115.408,209.288 116.306,209.288 118.501 M220.655 118.501 C 220.655 120.695,220.691 121.593,220.736 120.496 C 220.781 119.398,220.781 117.603,220.736 116.505 C 220.691 115.408,220.655 116.306,220.655 118.501 M152.116 118.863 C 154.175 120.925,155.913 122.612,155.980 122.612 C 156.046 122.612,154.416 120.925,152.358 118.863 C 150.299 116.802,148.561 115.115,148.494 115.115 C 148.428 115.115,150.058 116.802,152.116 118.863 M172.283 119.226 C 172.283 121.022,172.321 121.756,172.368 120.859 C 172.414 119.961,172.414 118.492,172.368 117.594 C 172.321 116.696,172.283 117.430,172.283 119.226 M212.912 119.226 C 212.912 121.022,212.950 121.756,212.997 120.859 C 213.043 119.961,213.043 118.492,212.997 117.594 C 212.950 116.696,212.912 117.430,212.912 119.226 M181.714 119.347 C 181.715 121.076,181.753 121.752,181.800 120.848 C 181.847 119.945,181.846 118.530,181.799 117.705 C 181.752 116.879,181.714 117.618,181.714 119.347 M167.408 118.501 C 167.408 118.966,167.458 119.157,167.519 118.924 C 167.579 118.691,167.579 118.310,167.519 118.077 C 167.458 117.845,167.408 118.035,167.408 118.501 M194.010 118.501 C 194.010 118.966,194.060 119.157,194.121 118.924 C 194.182 118.691,194.182 118.310,194.121 118.077 C 194.060 117.845,194.010 118.035,194.010 118.501 M179.749 216.619 C 180.117 216.674,180.661 216.673,180.959 216.615 C 181.256 216.558,180.955 216.512,180.290 216.514 C 179.625 216.516,179.382 216.563,179.749 216.619 M174.309 216.862 C 174.744 216.916,175.397 216.915,175.760 216.860 C 176.123 216.804,175.768 216.760,174.970 216.762 C 174.172 216.763,173.874 216.808,174.309 216.862 M200.786 217.095 C 201.019 217.156,201.400 217.156,201.632 217.095 C 201.865 217.035,201.675 216.985,201.209 216.985 C 200.744 216.985,200.553 217.035,200.786 217.095 M220.012 220.731 C 220.444 220.785,221.152 220.785,221.584 220.731 C 222.016 220.678,221.663 220.634,220.798 220.634 C 219.933 220.634,219.580 220.678,220.012 220.731 M226.904 221.207 C 227.137 221.267,227.518 221.267,227.751 221.207 C 227.984 221.146,227.793 221.096,227.328 221.096 C 226.862 221.096,226.672 221.146,226.904 221.207 M158.712 226.602 C 158.712 227.201,158.759 227.446,158.816 227.146 C 158.874 226.847,158.874 226.357,158.816 226.058 C 158.759 225.759,158.712 226.004,158.712 226.602 M158.493 235.792 C 158.493 237.189,158.533 237.760,158.582 237.062 C 158.631 236.363,158.631 235.221,158.582 234.522 C 158.533 233.824,158.493 234.395,158.493 235.792 M224.607 236.205 C 224.906 236.262,225.396 236.262,225.695 236.205 C 225.995 236.147,225.750 236.100,225.151 236.100 C 224.553 236.100,224.308 236.147,224.607 236.205 M239.959 237.243 C 239.959 237.709,240.009 237.899,240.070 237.666 C 240.131 237.433,240.131 237.053,240.070 236.820 C 240.009 236.587,239.959 236.778,239.959 237.243 M169.831 253.619 C 170.196 253.675,170.795 253.675,171.161 253.619 C 171.527 253.564,171.227 253.519,170.496 253.519 C 169.764 253.519,169.465 253.564,169.831 253.619 M196.315 255.310 C 196.616 255.368,197.051 255.366,197.282 255.305 C 197.513 255.245,197.267 255.197,196.735 255.200 C 196.203 255.203,196.014 255.252,196.315 255.310 M222.793 256.999 C 223.026 257.059,223.407 257.059,223.640 256.999 C 223.872 256.938,223.682 256.888,223.216 256.888 C 222.751 256.888,222.560 256.938,222.793 256.999 M235.779 261.125 L 234.946 262.031 235.852 261.198 C 236.697 260.422,236.871 260.218,236.686 260.218 C 236.645 260.218,236.237 260.626,235.779 261.125 M231.184 266.445 L 230.351 267.352 231.258 266.518 C 232.102 265.743,232.276 265.538,232.091 265.538 C 232.051 265.538,231.642 265.946,231.184 266.445 M226.683 276.114 C 226.767 276.250,226.667 276.928,226.462 277.620 C 223.300 288.266,221.979 302.462,222.733 317.675 L 222.854 320.114 223.700 319.764 C 227.238 318.298,231.271 315.879,231.046 315.359 C 228.335 309.111,228.337 303.570,231.054 290.301 C 232.723 282.147,232.401 278.638,229.816 276.817 C 228.841 276.131,226.347 275.571,226.683 276.114 M203.208 276.594 C 203.575 276.650,204.119 276.648,204.417 276.591 C 204.714 276.534,204.414 276.488,203.748 276.490 C 203.083 276.492,202.840 276.539,203.208 276.594 M206.227 276.591 C 206.527 276.649,207.016 276.649,207.316 276.591 C 207.615 276.534,207.370 276.487,206.771 276.487 C 206.173 276.487,205.928 276.534,206.227 276.591 M177.388 277.180 C 174.188 278.359,173.753 282.013,176.122 287.813 C 179.587 296.296,180.534 305.289,178.602 311.375 C 178.267 312.431,177.993 313.417,177.993 313.565 C 177.993 314.386,187.788 320.152,188.305 319.636 C 188.397 319.544,187.234 310.430,185.721 299.383 C 183.403 282.454,183.019 279.220,183.280 278.803 C 183.652 278.207,183.705 278.267,182.220 277.620 C 180.824 277.012,178.436 276.794,177.388 277.180 M223.317 278.378 C 221.820 280.032,216.775 282.716,213.078 283.825 C 211.937 284.167,210.860 284.491,210.683 284.545 C 210.431 284.621,210.444 284.723,210.744 285.023 C 210.953 285.232,211.123 285.640,211.121 285.930 C 211.114 287.065,212.584 319.451,212.718 321.107 L 212.860 322.868 213.746 322.710 C 217.355 322.066,221.559 320.756,221.042 320.437 C 220.540 320.126,220.352 318.009,220.175 310.641 C 219.918 300.016,221.150 288.628,223.550 279.438 C 223.978 277.801,223.951 277.678,223.317 278.378 M203.567 278.768 C 203.866 278.826,204.356 278.826,204.655 278.768 C 204.955 278.710,204.710 278.663,204.111 278.663 C 203.513 278.663,203.268 278.710,203.567 278.768 M185.378 279.974 C 185.429 280.214,185.858 283.349,186.332 286.941 C 189.295 309.411,190.431 317.308,190.797 317.992 C 190.937 318.254,191.052 319.005,191.052 319.660 L 191.052 320.852 193.047 321.395 C 194.144 321.694,195.532 322.082,196.131 322.258 C 198.427 322.933,198.739 322.941,198.634 322.322 C 198.357 320.682,194.436 284.950,194.492 284.574 C 194.545 284.218,194.138 283.970,192.458 283.337 C 191.303 282.901,189.290 281.902,187.985 281.115 C 185.081 279.366,185.267 279.447,185.378 279.974 M197.850 294.601 C 198.472 300.098,199.448 308.749,200.018 313.827 L 201.055 323.059 203.123 323.232 C 205.141 323.400,210.113 323.220,210.363 322.970 C 210.432 322.901,210.243 317.650,209.942 311.301 C 208.898 289.261,208.748 285.541,208.890 285.172 C 208.998 284.890,208.924 284.843,208.583 284.973 C 207.245 285.487,200.159 285.338,197.331 284.737 L 196.717 284.607 197.850 294.601 M116.672 286.638 L 115.961 287.424 116.747 286.714 C 117.480 286.052,117.644 285.852,117.458 285.852 C 117.416 285.852,117.062 286.206,116.672 286.638 M115.950 293.168 L 114.994 294.196 116.022 293.240 C 116.978 292.351,117.161 292.140,116.978 292.140 C 116.938 292.140,116.476 292.603,115.950 293.168 M116.680 295.586 L 114.994 297.340 116.747 295.653 C 118.376 294.087,118.611 293.833,118.434 293.833 C 118.397 293.833,117.608 294.622,116.680 295.586 M123.443 302.358 L 122.733 303.144 123.519 302.434 C 123.951 302.043,124.305 301.689,124.305 301.648 C 124.305 301.461,124.105 301.625,123.443 302.358 M174.744 315.339 C 171.746 318.651,162.588 322.097,152.301 323.781 L 148.368 324.426 148.300 327.469 L 148.233 330.512 149.211 330.805 C 152.772 331.872,153.608 335.099,152.537 343.652 C 150.459 360.244,150.798 387.699,153.225 399.335 L 153.364 400.000 220.729 400.000 L 288.095 400.000 287.926 396.917 C 286.055 362.699,280.933 345.639,269.137 334.334 C 266.679 331.978,262.423 329.075,261.298 328.986 C 253.390 328.363,239.949 322.843,234.852 318.125 C 233.586 316.953,233.397 316.851,233.110 317.197 C 231.977 318.562,225.401 321.958,221.259 323.317 C 207.361 327.875,190.300 325.565,179.323 317.639 C 175.086 314.580,175.323 314.699,174.744 315.339 M111.490 319.280 C 110.332 321.185,110.247 325.672,111.292 329.746 L 111.850 331.923 114.389 331.771 C 115.786 331.687,116.966 331.606,117.012 331.589 C 117.057 331.573,117.016 330.009,116.919 328.114 L 116.743 324.667 115.385 323.204 C 114.638 322.399,113.604 321.011,113.088 320.120 C 111.993 318.232,112.095 318.285,111.490 319.280 M141.959 322.515 L 138.452 324.042 138.474 324.959 C 138.485 325.464,138.540 326.937,138.595 328.232 L 138.694 330.588 140.387 330.589 C 141.318 330.589,142.988 330.519,144.098 330.432 L 146.117 330.275 146.015 326.141 C 145.873 320.374,146.201 320.668,141.959 322.515 M133.857 325.910 C 133.059 326.237,131.558 326.753,130.520 327.057 C 129.483 327.360,128.640 327.682,128.646 327.771 C 128.652 327.859,128.658 328.640,128.658 329.504 L 128.658 331.076 130.411 331.075 C 134.842 331.072,136.857 330.807,136.653 330.255 C 136.550 329.975,136.390 328.899,136.299 327.863 C 136.040 324.920,136.118 324.983,133.857 325.910 M119.302 328.929 C 119.384 330.278,119.494 331.425,119.546 331.476 C 119.852 331.782,126.495 331.219,126.372 330.898 C 126.299 330.708,126.239 329.979,126.239 329.278 L 126.239 328.004 124.337 327.857 C 123.215 327.771,121.762 327.457,120.794 327.093 L 119.153 326.475 119.302 328.929 M129.021 333.385 C 107.295 334.376,108.057 334.323,106.793 334.935 C 104.477 336.056,104.280 337.384,104.904 347.642 C 105.637 359.682,108.110 397.571,108.238 398.730 L 108.378 400.000 129.676 400.000 L 150.973 400.000 150.808 398.609 C 148.261 377.261,148.158 361.197,150.447 342.201 C 151.172 336.186,150.938 334.466,149.239 333.322 C 148.182 332.611,145.830 332.618,129.021 333.385 " stroke="none" fill="#c5cdc4" fill-rule="evenodd"></path><path id="path1" d="M124.626 104.328 C 122.276 105.396,123.153 107.811,125.783 107.513 C 128.543 107.201,129.807 108.433,129.527 111.162 C 129.179 114.556,132.247 114.797,132.997 111.435 C 134.002 106.926,128.740 102.458,124.626 104.328 M109.309 108.099 C 105.607 109.145,103.654 113.430,105.284 116.930 C 106.356 119.232,108.581 120.443,109.614 119.287 C 110.374 118.437,110.247 117.582,109.200 116.505 C 107.367 114.617,107.862 112.411,110.350 111.371 C 112.602 110.430,111.650 107.437,109.309 108.099 M183.100 108.496 C 182.222 109.111,181.862 110.290,181.862 112.552 L 181.862 114.599 181.197 114.676 C 180.636 114.740,180.532 114.866,180.532 115.478 C 180.532 116.089,180.636 116.215,181.197 116.280 L 181.862 116.356 181.862 119.363 L 181.862 122.370 182.709 122.370 L 183.555 122.370 183.555 119.347 L 183.555 116.324 184.764 116.324 L 185.973 116.324 185.973 115.478 L 185.973 114.631 184.764 114.631 L 183.555 114.631 183.555 112.501 C 183.555 109.967,183.817 109.444,185.071 109.479 C 186.143 109.510,186.822 108.498,185.897 108.250 C 184.921 107.988,183.667 108.098,183.100 108.496 M144.619 115.443 L 144.619 122.370 145.466 122.370 L 146.312 122.370 146.312 117.596 L 146.312 112.822 151.270 117.775 L 156.227 122.728 156.227 115.899 L 156.227 109.069 155.381 109.069 L 154.534 109.069 154.523 113.845 L 154.511 118.622 149.565 113.569 L 144.619 108.516 144.619 115.443 M176.551 111.470 C 176.237 112.056,176.449 112.634,177.046 112.824 C 177.939 113.108,178.732 112.020,178.096 111.383 C 177.578 110.865,176.853 110.906,176.551 111.470 M188.440 111.294 C 187.669 112.065,188.625 113.219,189.601 112.696 C 190.425 112.256,190.067 111.004,189.117 111.004 C 188.904 111.004,188.600 111.134,188.440 111.294 M219.154 111.294 C 218.383 112.065,219.338 113.219,220.314 112.696 C 221.138 112.256,220.780 111.004,219.831 111.004 C 219.618 111.004,219.313 111.134,219.154 111.294 M170.496 112.922 C 170.496 114.572,170.485 114.600,169.831 114.676 C 168.777 114.797,168.707 116.082,169.754 116.082 L 170.496 116.082 170.496 119.226 L 170.496 122.370 171.342 122.370 L 172.189 122.370 172.189 119.226 L 172.189 116.082 173.293 116.082 C 174.932 116.082,174.862 114.797,173.216 114.678 L 172.189 114.603 172.189 112.924 L 172.189 111.245 171.342 111.245 L 170.496 111.245 170.496 112.922 M213.059 112.938 L 213.059 114.631 212.334 114.631 C 211.689 114.631,211.608 114.712,211.608 115.357 C 211.608 116.002,211.689 116.082,212.334 116.082 L 213.059 116.082 213.059 119.226 L 213.059 122.370 213.906 122.370 L 214.752 122.370 214.752 119.226 L 214.752 116.082 215.856 116.082 C 217.495 116.082,217.425 114.797,215.780 114.678 L 214.752 114.603 214.752 112.924 L 214.752 111.245 213.906 111.245 L 213.059 111.245 213.059 112.938 M161.299 114.933 C 158.429 116.383,158.297 120.374,161.064 121.991 C 162.310 122.718,164.376 122.643,165.612 121.826 C 168.888 119.657,167.209 114.389,163.241 114.389 C 162.765 114.389,161.891 114.634,161.299 114.933 M202.968 114.864 C 199.710 116.343,200.129 121.540,203.572 122.352 C 204.917 122.669,206.074 122.413,206.931 121.608 L 207.497 121.077 207.497 121.723 C 207.497 122.301,207.587 122.370,208.343 122.370 L 209.190 122.370 209.190 118.501 L 209.190 114.631 208.491 114.631 C 207.947 114.631,207.758 114.765,207.640 115.232 L 207.490 115.833 207.000 115.343 C 205.957 114.301,204.572 114.136,202.968 114.864 M225.856 114.620 C 223.593 115.306,222.396 117.858,223.311 120.046 C 224.787 123.578,230.277 123.177,231.222 119.468 C 232.029 116.297,229.088 113.641,225.856 114.620 M237.095 114.723 C 236.681 114.910,236.110 115.313,235.825 115.618 L 235.308 116.173 235.308 115.402 C 235.308 114.707,235.237 114.631,234.583 114.631 L 233.857 114.631 233.857 118.501 L 233.857 122.370 234.550 122.370 L 235.242 122.370 235.366 120.133 C 235.506 117.595,235.837 116.680,236.794 116.185 C 238.671 115.215,239.178 115.930,239.178 119.547 L 239.178 122.370 240.024 122.370 L 240.871 122.370 240.871 119.119 C 240.871 114.826,239.751 113.523,237.095 114.723 M176.542 118.485 L 176.542 122.370 177.394 122.370 L 178.247 122.370 178.180 118.561 L 178.114 114.752 177.328 114.676 L 176.542 114.601 176.542 118.485 M188.311 114.792 C 188.222 114.881,188.150 116.622,188.150 118.662 L 188.150 122.370 188.996 122.370 L 189.843 122.370 189.843 118.501 L 189.843 114.631 189.158 114.631 C 188.781 114.631,188.400 114.704,188.311 114.792 M194.193 115.175 C 189.947 118.065,193.476 124.129,198.253 122.151 C 199.146 121.781,199.172 121.715,198.650 121.139 C 198.338 120.794,198.137 120.762,197.556 120.964 C 195.677 121.619,193.807 120.218,194.021 118.315 C 194.235 116.418,195.964 115.360,197.554 116.153 C 198.212 116.481,198.313 116.476,198.656 116.098 C 199.824 114.806,195.921 113.999,194.193 115.175 M219.025 114.792 C 218.936 114.881,218.863 116.622,218.863 118.662 L 218.863 122.370 219.710 122.370 L 220.556 122.370 220.556 118.501 L 220.556 114.631 219.871 114.631 C 219.494 114.631,219.113 114.704,219.025 114.792 M164.603 116.269 C 166.963 118.181,164.847 122.246,162.197 120.891 C 159.854 119.692,160.592 115.831,163.162 115.846 C 163.671 115.849,164.319 116.039,164.603 116.269 M206.790 116.547 C 207.690 117.447,207.794 119.267,207.003 120.273 C 206.001 121.546,203.769 121.318,202.874 119.850 C 201.286 117.246,204.651 114.408,206.790 116.547 M228.608 116.328 C 230.486 117.805,229.721 120.774,227.381 121.088 C 225.045 121.401,223.762 118.169,225.578 116.546 C 226.528 115.697,227.699 115.613,228.608 116.328 M213.059 155.664 C 180.106 158.951,158.486 173.476,145.083 201.330 C 132.143 228.222,129.994 244.346,137.388 259.057 C 138.425 261.120,138.443 261.054,136.776 261.296 C 127.264 262.677,121.644 269.763,121.644 280.378 C 121.644 281.960,121.299 282.445,120.163 282.459 C 111.880 282.559,106.421 300.483,110.505 314.173 L 111.053 316.012 110.155 317.263 C 107.923 320.369,107.582 327.163,109.424 331.827 C 109.550 332.147,109.332 332.245,108.194 332.378 C 105.421 332.704,103.415 334.179,102.611 336.483 C 102.033 338.139,102.057 340.814,102.738 350.544 C 103.036 354.800,103.716 364.844,104.249 372.863 L 105.218 387.443 104.495 392.089 C 104.098 394.644,103.698 397.470,103.606 398.368 L 103.440 400.000 104.562 400.000 C 105.597 400.000,105.683 399.953,105.683 399.395 C 105.683 399.063,105.792 398.791,105.925 398.791 C 106.058 398.791,106.167 399.063,106.167 399.395 C 106.167 399.940,106.264 400.000,107.134 400.000 C 108.356 400.000,108.465 404.176,106.408 372.310 C 105.875 364.063,105.272 354.704,105.068 351.511 C 103.922 333.634,103.457 334.465,114.873 333.979 C 118.265 333.835,124.196 333.564,128.053 333.378 C 148.913 332.369,147.379 332.407,148.586 332.868 C 150.772 333.703,151.309 335.487,150.776 340.145 C 148.421 360.707,148.354 377.920,150.560 395.526 C 151.156 400.284,151.055 400.000,152.143 400.000 C 152.736 400.000,153.082 399.888,153.081 399.698 C 153.079 399.531,152.868 397.709,152.611 395.647 C 151.332 385.369,150.782 374.827,150.990 364.571 C 151.165 355.931,151.574 350.462,152.852 339.661 C 153.438 334.706,152.104 331.678,148.961 330.831 L 148.056 330.588 148.183 327.507 C 148.253 325.812,148.325 324.406,148.343 324.381 C 148.361 324.357,150.088 324.053,152.181 323.706 C 162.116 322.058,169.062 319.582,173.761 316.016 L 175.453 314.731 178.114 316.672 C 193.755 328.088,218.425 328.460,232.673 317.494 L 233.543 316.824 234.728 317.908 C 238.608 321.457,243.930 324.262,250.787 326.370 C 254.124 327.396,260.889 328.962,261.188 328.777 C 261.813 328.391,267.185 332.206,270.022 335.051 C 281.021 346.083,286.230 363.736,287.903 395.647 C 288.138 400.122,288.096 400.000,289.393 400.000 L 290.494 400.000 290.334 397.400 C 289.646 386.174,288.594 376.456,287.160 368.060 L 286.558 364.536 290.869 360.200 C 301.237 349.772,305.604 341.138,305.538 331.197 C 305.498 325.102,304.210 321.788,299.287 315.115 C 290.107 302.671,288.534 293.972,292.993 280.290 C 297.690 265.874,296.814 258.290,289.221 247.642 C 281.705 237.103,277.637 227.452,275.462 214.994 C 272.429 197.632,264.425 179.337,255.842 170.151 C 245.904 159.515,229.643 154.009,213.059 155.664 M209.069 165.198 C 223.336 166.923,239.823 178.190,245.558 190.133 C 248.315 195.874,246.122 200.385,241.510 198.458 C 239.857 197.767,239.279 197.080,235.402 191.186 C 222.016 170.840,190.364 165.783,170.555 180.825 C 168.838 182.129,168.787 182.149,168.197 181.762 C 167.294 181.171,167.417 180.910,169.589 178.807 C 180.229 168.505,194.822 163.475,209.069 165.198 M229.426 200.000 C 230.292 202.916,236.276 216.802,237.972 219.831 C 238.754 221.227,239.687 223.023,240.047 223.821 C 240.406 224.619,241.335 226.415,242.111 227.811 C 246.961 236.545,245.760 245.748,239.367 248.851 C 237.078 249.962,237.127 251.152,239.462 251.145 C 242.507 251.136,247.269 245.666,248.446 240.824 L 248.993 238.573 250.433 237.800 C 258.973 233.217,265.006 235.517,265.469 243.531 C 265.915 251.247,259.430 258.545,249.879 261.076 C 246.776 261.898,245.873 261.839,242.766 260.609 C 238.019 258.729,237.651 258.880,232.896 264.654 C 224.011 275.444,208.450 279.239,191.138 274.838 C 175.803 270.939,164.074 261.492,160.325 250.018 C 159.393 247.167,159.400 246.917,160.406 246.917 C 161.970 246.917,162.842 245.649,161.785 244.909 C 161.399 244.639,161.095 244.622,160.321 244.828 C 159.534 245.038,159.304 245.023,159.134 244.748 C 158.332 243.450,158.334 225.112,159.137 222.435 C 159.777 220.296,162.794 212.369,164.585 208.115 L 166.005 204.743 166.291 206.543 C 166.939 210.634,169.543 215.457,171.420 216.043 C 171.776 216.154,172.394 216.341,172.793 216.458 C 173.860 216.772,184.724 216.566,185.610 216.215 C 186.637 215.808,187.133 215.298,187.661 214.102 C 188.218 212.845,188.329 212.829,189.170 213.883 C 190.098 215.046,193.458 216.049,198.645 216.709 C 202.519 217.203,203.909 216.695,204.215 214.673 C 204.471 212.977,204.564 212.979,206.712 214.732 C 211.839 218.916,215.223 220.311,220.919 220.588 C 223.180 220.698,225.652 220.857,226.412 220.943 C 230.057 221.353,231.086 220.253,229.850 217.267 C 228.592 214.227,227.823 210.960,227.666 207.988 L 227.532 205.441 228.403 207.910 C 228.881 209.268,230.042 212.098,230.982 214.198 C 236.557 226.653,237.462 229.354,237.865 234.724 C 238.320 240.788,235.913 245.224,232.169 245.224 C 230.912 245.224,230.342 246.105,231.075 246.916 C 232.628 248.632,237.021 246.112,238.680 242.555 C 241.348 236.831,240.162 229.880,234.225 216.445 C 229.686 206.172,228.213 201.155,228.332 196.372 L 228.359 195.284 228.587 196.614 C 228.712 197.346,229.090 198.869,229.426 200.000 M185.006 233.058 C 183.460 233.610,183.763 238.145,185.332 237.922 C 186.599 237.741,187.194 234.027,186.086 233.216 C 185.607 232.867,185.560 232.860,185.006 233.058 M209.339 234.653 C 208.772 235.068,208.548 237.594,209.002 238.452 C 209.894 240.138,211.366 238.998,211.366 236.622 C 211.366 234.636,210.505 233.800,209.339 234.653 M168.178 237.814 C 167.858 238.648,168.173 239.299,168.897 239.299 C 169.759 239.299,170.254 238.650,169.866 238.029 C 169.521 237.479,168.363 237.331,168.178 237.814 M175.936 238.211 C 175.331 238.880,175.770 239.903,176.663 239.903 C 177.555 239.903,177.994 238.880,177.389 238.211 C 177.148 237.945,176.821 237.727,176.663 237.727 C 176.504 237.727,176.177 237.945,175.936 238.211 M196.055 241.536 C 195.272 242.907,195.776 247.158,196.723 247.158 C 197.568 247.158,198.297 242.579,197.588 241.724 C 197.271 241.342,196.239 241.215,196.055 241.536 M227.376 241.886 C 226.971 242.291,227.014 243.170,227.456 243.537 C 228.021 244.006,229.021 243.470,229.021 242.698 C 229.021 241.823,227.962 241.300,227.376 241.886 M170.838 242.409 C 170.518 243.243,170.833 243.894,171.558 243.894 C 172.419 243.894,172.914 243.245,172.526 242.624 C 172.181 242.074,171.023 241.926,170.838 242.409 M216.583 243.580 C 215.928 244.514,217.156 245.696,218.029 244.972 C 218.530 244.556,218.463 243.592,217.912 243.298 C 217.233 242.934,217.001 242.984,216.583 243.580 M178.767 243.821 C 178.323 244.265,178.421 245.177,178.943 245.456 C 179.573 245.794,180.143 245.535,180.319 244.831 C 180.575 243.814,179.483 243.104,178.767 243.821 M222.350 245.069 C 222.029 245.903,222.345 246.554,223.069 246.554 C 223.931 246.554,224.426 245.905,224.037 245.284 C 223.693 244.734,222.535 244.586,222.350 245.069 M165.374 246.069 C 165.083 246.706,165.613 247.642,166.264 247.642 C 166.422 247.642,166.749 247.424,166.990 247.157 C 167.595 246.488,167.156 245.466,166.264 245.466 C 165.843 245.466,165.562 245.656,165.374 246.069 M250.865 245.918 C 249.576 246.524,248.953 247.412,249.326 248.110 C 249.668 248.748,250.290 248.743,251.391 248.093 C 252.638 247.358,254.681 247.561,256.348 248.586 C 257.811 249.487,258.445 249.532,258.797 248.761 C 259.734 246.704,253.752 244.560,250.865 245.918 M172.093 248.647 C 171.726 249.170,171.875 249.838,172.434 250.184 C 172.876 250.457,173.636 250.037,173.787 249.437 C 174.083 248.257,172.789 247.653,172.093 248.647 M228.306 248.959 C 227.721 249.664,228.092 250.423,229.021 250.423 C 229.720 250.423,229.881 250.327,229.946 249.866 C 230.041 249.198,229.607 248.609,229.021 248.609 C 228.787 248.609,228.466 248.767,228.306 248.959 M217.090 249.980 C 216.652 250.418,216.942 251.506,217.536 251.655 C 218.579 251.916,219.302 250.838,218.573 250.109 C 218.260 249.796,217.353 249.717,217.090 249.980 M191.342 251.076 C 190.567 251.851,191.923 253.544,194.155 254.589 C 196.950 255.897,201.739 254.372,200.734 252.495 C 200.398 251.866,199.664 251.857,198.803 252.470 C 197.224 253.594,194.952 253.211,193.349 251.551 C 192.590 250.764,191.833 250.585,191.342 251.076 M222.833 251.357 C 222.513 252.191,222.828 252.842,223.553 252.842 C 224.415 252.842,224.910 252.193,224.521 251.572 C 224.176 251.022,223.018 250.874,222.833 251.357 M149.397 263.600 C 150.799 263.783,151.535 263.785,151.870 263.606 C 154.292 262.310,157.311 271.800,161.164 292.819 C 163.473 305.415,163.154 309.066,159.450 312.451 C 158.018 313.760,152.804 316.570,152.845 316.011 C 152.847 315.984,153.006 315.526,153.197 314.994 C 154.966 310.084,150.284 306.957,142.443 307.810 C 141.312 307.933,140.358 308.011,140.323 307.984 C 140.288 307.956,140.886 307.518,141.653 307.012 C 148.405 302.550,152.861 298.449,152.912 296.649 C 153.050 291.810,147.410 292.183,133.173 297.956 L 130.230 299.149 134.475 294.973 C 139.915 289.621,140.754 288.057,139.495 285.613 C 137.761 282.243,133.733 282.203,127.205 285.491 C 126.247 285.973,125.437 286.333,125.404 286.291 C 125.370 286.249,125.041 285.693,124.673 285.055 L 124.003 283.895 124.131 279.614 C 124.523 266.510,132.575 261.406,149.397 263.600 M130.505 270.479 C 127.771 271.477,126.400 274.862,127.759 277.260 C 130.099 281.392,136.608 279.653,136.352 274.965 C 136.176 271.744,133.231 269.484,130.505 270.479 M132.882 272.830 C 133.792 273.546,134.544 275.332,134.204 275.968 C 133.341 277.579,130.114 277.801,129.534 276.289 C 128.576 273.794,130.967 271.324,132.882 272.830 M229.214 276.278 C 232.388 277.936,232.847 281.727,231.003 291.052 C 228.614 303.134,228.453 307.812,230.249 312.938 C 230.645 314.069,231.029 315.169,231.103 315.383 C 231.268 315.867,228.990 317.351,225.514 319.023 C 222.705 320.374,222.782 320.357,222.792 319.649 C 222.796 319.350,222.657 316.513,222.484 313.345 C 221.877 302.275,222.818 292.588,225.688 280.352 L 226.723 275.940 227.642 275.938 C 228.147 275.938,228.855 276.091,229.214 276.278 M192.195 277.271 C 200.424 279.180,208.439 279.016,218.784 276.730 L 219.309 276.613 218.804 277.986 C 217.075 282.679,202.643 284.787,193.825 281.636 C 190.584 280.477,190.429 280.352,190.241 278.756 C 190.155 278.027,190.012 277.238,189.922 277.004 C 189.794 276.671,189.850 276.614,190.179 276.740 C 190.410 276.828,191.317 277.068,192.195 277.271 M181.539 277.293 C 183.322 277.898,183.866 278.321,183.428 278.759 C 182.977 279.210,182.900 278.303,184.154 287.350 C 187.278 309.891,188.605 319.817,188.509 319.915 C 188.179 320.247,181.583 316.582,179.166 314.723 L 177.799 313.673 178.395 311.798 C 180.429 305.392,179.700 296.953,176.404 288.752 C 174.138 283.117,173.912 280.992,175.327 278.664 C 176.318 277.035,179.022 276.439,181.539 277.293 M223.357 280.556 C 220.683 291.919,219.643 303.800,220.337 315.055 C 220.503 317.744,220.729 319.610,220.943 320.051 C 221.130 320.439,221.254 320.786,221.217 320.822 C 220.915 321.125,213.877 322.854,212.949 322.854 C 212.652 322.854,212.576 322.543,212.577 321.342 C 212.578 320.511,212.410 316.511,212.204 312.455 C 211.999 308.398,211.636 300.629,211.397 295.190 C 211.004 286.206,210.924 285.272,210.525 284.980 C 210.077 284.652,210.784 284.160,211.703 284.160 C 213.239 284.160,219.232 281.345,221.886 279.377 C 224.223 277.644,224.071 277.522,223.357 280.556 M192.428 283.204 L 194.599 284.024 194.628 285.120 C 194.644 285.722,195.587 294.420,196.724 304.449 C 197.861 314.477,198.791 322.721,198.791 322.768 C 198.791 323.001,197.667 322.768,194.383 321.855 L 190.790 320.857 190.944 319.827 C 191.043 319.166,190.987 318.593,190.785 318.226 C 190.613 317.911,190.288 316.403,190.063 314.873 C 189.527 311.231,187.435 295.961,186.318 287.545 C 185.832 283.888,185.379 280.545,185.311 280.117 L 185.187 279.339 187.722 280.861 C 189.116 281.699,191.234 282.753,192.428 283.204 M204.716 285.075 L 209.069 284.991 209.119 288.868 C 209.146 291.000,209.444 298.567,209.780 305.683 C 210.116 312.799,210.420 319.617,210.455 320.835 L 210.520 323.048 209.458 323.192 C 208.108 323.377,202.250 323.329,201.451 323.127 C 200.966 323.005,200.835 322.807,200.790 322.128 C 200.760 321.663,199.807 313.030,198.674 302.944 C 197.541 292.858,196.614 284.580,196.614 284.549 C 196.614 284.517,197.458 284.641,198.489 284.825 C 199.771 285.053,201.736 285.132,204.716 285.075 M122.448 285.429 C 123.455 286.778,123.684 287.347,123.304 287.559 C 119.042 289.950,111.870 296.880,112.417 298.080 C 112.902 299.143,113.582 298.819,115.784 296.480 C 123.442 288.345,135.641 282.665,137.599 286.323 C 138.501 288.008,137.549 289.319,130.880 295.582 C 122.795 303.175,122.823 303.146,122.998 303.602 C 123.397 304.642,123.937 304.548,127.507 302.819 C 134.974 299.202,146.087 295.284,148.880 295.284 C 150.144 295.284,151.041 295.932,150.805 296.674 C 150.325 298.187,141.722 304.775,134.693 309.012 C 131.958 310.661,131.483 311.174,132.053 311.862 C 132.472 312.366,133.036 312.303,135.324 311.495 C 141.223 309.413,148.748 309.291,150.703 311.246 C 152.718 313.261,151.141 315.967,146.779 317.981 C 129.996 325.732,125.384 326.923,120.813 324.685 C 111.109 319.934,107.995 300.035,115.166 288.593 C 117.429 284.982,120.967 283.445,122.448 285.429 M113.367 320.372 C 113.863 321.202,114.843 322.531,115.545 323.326 L 116.821 324.771 116.973 328.287 L 117.125 331.802 115.549 331.802 C 114.682 331.802,113.480 331.869,112.878 331.952 L 111.783 332.102 111.237 329.836 C 110.474 326.671,110.313 322.395,110.891 320.645 C 111.465 318.906,112.005 318.076,112.269 318.527 C 112.377 318.712,112.871 319.542,113.367 320.372 M145.863 321.947 C 146.148 322.938,146.325 330.190,146.070 330.418 C 145.638 330.804,138.058 330.831,138.444 330.445 C 138.683 330.206,138.798 329.830,138.723 329.530 C 138.653 329.250,138.526 327.878,138.441 326.481 L 138.286 323.942 141.755 322.446 C 145.921 320.648,145.505 320.699,145.863 321.947 M136.155 325.770 C 136.155 326.875,136.642 329.929,136.893 330.401 C 137.188 330.954,136.504 331.057,132.044 331.136 L 128.537 331.197 128.473 329.353 L 128.409 327.509 129.937 327.125 C 130.778 326.914,132.439 326.360,133.629 325.895 C 136.268 324.862,136.155 324.867,136.155 325.770 M121.040 327.082 C 122.223 327.500,123.251 327.682,124.451 327.685 L 126.170 327.690 126.331 329.419 C 126.528 331.545,126.937 331.315,122.830 331.382 L 119.347 331.439 119.278 328.960 C 119.240 327.597,119.240 326.482,119.278 326.482 C 119.316 326.483,120.109 326.753,121.040 327.082 " stroke="none" fill="#040404" fill-rule="evenodd"></path><path id="path2" d="M399.758 199.879 L 399.758 399.757 345.042 399.819 L 290.326 399.880 345.163 399.940 L 400.000 400.000 400.000 200.000 C 400.000 90.000,399.946 0.000,399.879 0.000 C 399.813 0.000,399.758 89.945,399.758 199.879 M96.956 95.561 C 95.088 95.833,93.901 96.476,92.529 97.958 C 90.324 100.340,90.424 99.363,90.501 117.797 L 90.568 133.857 91.129 134.908 C 92.322 137.143,94.316 138.608,96.787 139.065 C 97.615 139.218,131.809 139.280,193.236 139.240 L 288.402 139.178 290.009 138.387 C 291.833 137.489,292.923 136.376,293.753 134.561 L 294.327 133.308 294.261 117.138 L 294.196 100.967 293.628 99.814 C 292.809 98.151,291.176 96.620,289.588 96.025 L 288.250 95.525 193.137 95.465 C 140.824 95.432,97.543 95.475,96.956 95.561 M129.446 104.423 C 132.428 105.742,134.035 109.523,132.861 112.457 C 131.838 115.013,128.519 113.830,129.424 111.232 C 130.165 109.107,128.654 107.496,126.119 107.708 C 124.247 107.865,123.771 107.669,123.353 106.570 C 122.495 104.314,126.226 102.999,129.446 104.423 M120.262 105.478 C 120.782 105.756,121.642 107.095,121.644 107.628 C 121.644 107.864,122.033 108.105,122.698 108.283 C 125.587 109.056,127.051 111.160,128.514 116.642 C 130.019 122.280,130.492 123.167,133.011 125.072 C 134.168 125.947,134.001 126.052,129.546 127.241 L 125.725 128.262 125.906 128.883 C 126.883 132.237,122.729 133.621,121.585 130.323 L 121.282 129.448 117.412 130.484 C 112.971 131.673,112.850 131.647,113.678 129.688 C 114.564 127.594,114.476 125.500,113.329 121.403 C 111.546 115.028,111.846 112.460,114.677 109.903 C 115.432 109.220,115.599 108.907,115.599 108.163 C 115.602 105.770,118.110 104.326,120.262 105.478 M111.169 108.386 C 112.163 109.319,111.637 111.487,110.418 111.487 C 108.230 111.487,107.640 114.901,109.523 116.672 C 110.462 117.555,110.521 118.522,109.685 119.358 C 107.359 121.684,103.641 116.411,104.799 112.428 C 105.704 109.314,109.556 106.870,111.169 108.386 M186.256 108.288 C 186.766 108.798,185.968 109.763,185.147 109.630 C 183.998 109.443,183.719 109.956,183.599 112.476 L 183.496 114.631 184.735 114.631 L 185.973 114.631 185.973 115.478 L 185.973 116.324 184.764 116.324 L 183.555 116.324 183.555 119.347 L 183.555 122.370 182.588 122.370 L 181.620 122.370 181.620 119.347 L 181.620 116.324 181.016 116.324 C 180.486 116.324,180.411 116.219,180.411 115.478 C 180.411 114.749,180.491 114.631,180.983 114.631 C 181.534 114.631,181.559 114.552,181.671 112.393 C 181.807 109.795,182.250 108.715,183.389 108.201 C 184.187 107.841,185.860 107.891,186.256 108.288 M149.577 113.393 L 154.172 118.138 154.237 113.482 L 154.303 108.827 155.386 108.827 L 156.469 108.827 156.469 115.840 C 156.469 119.801,156.375 122.854,156.253 122.854 C 156.134 122.854,153.903 120.667,151.295 117.994 L 146.554 113.135 146.554 117.752 L 146.554 122.370 145.586 122.370 L 144.619 122.370 144.619 115.478 C 144.619 111.687,144.701 108.599,144.800 108.617 C 144.900 108.634,147.050 110.783,149.577 113.393 M178.436 111.830 C 178.615 112.732,177.270 113.328,176.590 112.648 C 176.102 112.160,176.244 111.252,176.844 111.019 C 177.477 110.773,178.311 111.199,178.436 111.830 M190.085 111.487 C 190.478 112.223,189.995 112.938,189.104 112.938 C 188.214 112.938,187.633 111.990,188.144 111.374 C 188.592 110.833,189.772 110.902,190.085 111.487 M220.798 111.487 C 221.192 112.223,220.708 112.938,219.817 112.938 C 218.928 112.938,218.346 111.990,218.857 111.374 C 219.306 110.833,220.485 110.902,220.798 111.487 M172.430 112.938 L 172.430 114.631 173.398 114.631 C 174.311 114.631,174.365 114.672,174.365 115.357 C 174.365 116.042,174.311 116.082,173.398 116.082 L 172.430 116.082 172.430 119.226 L 172.430 122.370 171.463 122.370 L 170.496 122.370 170.496 119.226 L 170.496 116.082 169.770 116.082 C 169.125 116.082,169.045 116.002,169.045 115.357 C 169.045 114.712,169.125 114.631,169.770 114.631 L 170.496 114.631 170.496 112.938 L 170.496 111.245 171.463 111.245 L 172.430 111.245 172.430 112.938 M214.752 112.938 L 214.752 114.631 215.840 114.631 C 216.888 114.631,216.929 114.658,216.929 115.357 C 216.929 116.055,216.888 116.082,215.840 116.082 L 214.752 116.082 214.752 119.226 L 214.752 122.370 213.785 122.370 L 212.817 122.370 212.817 119.226 L 212.817 116.082 212.213 116.082 C 211.702 116.082,211.608 115.969,211.608 115.357 C 211.608 114.744,211.702 114.631,212.213 114.631 C 212.800 114.631,212.817 114.583,212.817 112.938 L 212.817 111.245 213.785 111.245 L 214.752 111.245 214.752 112.938 M165.849 115.078 C 169.130 117.414,167.313 122.612,163.216 122.612 C 158.570 122.612,157.266 116.308,161.548 114.551 C 162.422 114.193,165.060 114.516,165.849 115.078 M197.848 114.663 C 199.164 115.101,199.380 115.415,198.830 116.093 C 198.415 116.607,198.294 116.638,197.720 116.376 C 195.130 115.196,192.844 118.324,194.874 120.269 C 195.586 120.951,197.068 121.160,197.820 120.685 C 198.164 120.467,199.274 121.212,199.274 121.660 C 199.274 122.509,195.772 122.838,194.333 122.125 C 189.806 119.882,193.021 113.056,197.848 114.663 M206.753 115.015 C 207.469 115.618,207.497 115.623,207.497 115.136 C 207.497 114.708,207.644 114.631,208.464 114.631 L 209.432 114.631 209.432 118.501 L 209.432 122.370 208.464 122.370 C 207.663 122.370,207.497 122.288,207.497 121.894 C 207.497 121.442,207.452 121.448,206.617 122.015 C 203.038 124.444,198.817 119.539,201.385 115.934 C 202.538 114.314,205.348 113.833,206.753 115.015 M229.523 114.939 C 231.985 116.598,232.149 120.041,229.851 121.794 C 228.646 122.713,225.869 122.817,224.746 121.985 C 221.317 119.444,222.955 114.389,227.207 114.389 C 228.367 114.389,228.892 114.514,229.523 114.939 M239.917 114.638 C 240.862 115.144,241.112 116.128,241.112 119.335 L 241.112 122.370 240.145 122.370 L 239.178 122.370 239.178 119.694 C 239.178 116.623,238.993 116.082,237.944 116.082 C 236.158 116.082,235.550 117.122,235.550 120.181 L 235.550 122.370 234.583 122.370 L 233.615 122.370 233.615 118.501 L 233.615 114.631 234.434 114.631 C 235.075 114.631,235.282 114.747,235.392 115.166 L 235.532 115.700 236.085 115.197 C 236.985 114.377,238.906 114.097,239.917 114.638 M178.235 118.501 L 178.235 122.370 177.267 122.370 L 176.300 122.370 176.300 118.501 L 176.300 114.631 177.267 114.631 L 178.235 114.631 178.235 118.501 M190.085 118.501 L 190.085 122.370 189.117 122.370 L 188.150 122.370 188.150 118.501 L 188.150 114.631 189.117 114.631 L 190.085 114.631 190.085 118.501 M220.798 118.501 L 220.798 122.370 219.831 122.370 L 218.863 122.370 218.863 118.501 L 218.863 114.631 219.831 114.631 L 220.798 114.631 220.798 118.501 M162.515 116.011 C 161.223 116.484,160.523 118.163,161.070 119.482 C 161.912 121.516,164.730 121.428,165.417 119.346 C 166.056 117.412,164.277 115.367,162.515 116.011 M204.111 116.099 C 201.682 117.089,202.425 120.919,205.047 120.919 C 206.430 120.919,207.266 120.143,207.427 118.709 C 207.638 116.842,205.813 115.406,204.111 116.099 M226.360 116.103 C 224.827 116.718,224.400 118.826,225.535 120.175 C 226.929 121.832,229.504 120.736,229.504 118.486 C 229.504 116.807,227.809 115.522,226.360 116.103 M228.681 199.154 C 228.982 203.201,230.386 207.485,234.267 216.203 C 241.111 231.577,241.930 239.804,237.148 245.149 C 236.247 246.157,236.089 246.499,235.966 247.717 C 234.932 257.942,219.252 260.567,214.680 251.281 C 212.970 247.807,213.836 243.135,216.658 240.603 C 220.135 237.485,221.402 236.697,223.629 236.266 C 227.738 235.470,232.863 238.212,234.944 242.318 L 235.603 243.619 236.057 243.031 C 239.446 238.647,238.186 230.460,232.045 216.944 C 230.778 214.156,229.318 210.700,228.801 209.263 C 228.283 207.826,227.795 206.487,227.716 206.288 C 227.476 205.683,227.810 209.175,228.198 211.331 C 228.512 213.073,229.363 215.745,230.495 218.544 C 231.247 220.402,229.115 221.541,225.794 221.055 C 224.842 220.915,222.526 220.752,220.647 220.691 C 215.206 220.517,210.720 218.536,205.875 214.168 L 204.615 213.033 204.452 214.264 C 204.059 217.221,200.651 217.834,194.317 216.084 C 193.652 215.900,192.468 215.624,191.686 215.469 C 190.495 215.234,190.103 215.017,189.268 214.132 L 188.271 213.075 187.666 214.331 C 186.648 216.447,186.345 216.538,179.686 216.730 C 175.861 216.840,173.686 216.808,173.035 216.631 C 172.503 216.487,171.856 216.349,171.597 216.323 C 169.866 216.153,166.695 210.475,166.190 206.642 L 166.000 205.200 165.449 206.409 C 164.669 208.118,161.090 217.224,159.846 220.663 L 158.801 223.550 158.784 232.755 C 158.763 243.933,158.842 244.740,159.961 244.740 L 160.759 244.740 160.789 243.417 C 160.843 241.078,162.014 238.624,163.785 237.141 C 164.350 236.668,165.466 235.735,166.264 235.068 C 174.661 228.052,187.204 238.929,181.556 248.329 C 177.252 255.491,165.148 255.407,161.776 248.192 C 161.216 246.993,160.380 246.636,159.656 247.285 C 159.456 247.464,161.437 252.797,162.298 254.393 C 169.416 267.604,186.573 276.423,205.200 276.447 C 217.750 276.463,226.165 272.591,234.008 263.193 C 237.584 258.907,238.359 258.642,242.416 260.320 C 245.560 261.620,245.991 261.693,248.217 261.303 C 260.412 259.167,268.501 248.232,264.420 239.399 C 262.368 234.957,257.457 234.382,250.665 237.787 C 248.908 238.668,248.997 238.536,248.468 241.058 C 247.563 245.367,242.156 251.511,239.269 251.511 C 237.111 251.511,237.157 249.791,239.343 248.730 C 245.130 245.922,246.764 237.155,242.904 229.625 C 242.290 228.428,241.189 226.252,240.456 224.788 C 239.722 223.325,238.542 221.094,237.831 219.831 C 235.774 216.171,229.799 202.088,229.007 199.033 L 228.537 197.219 228.681 199.154 M186.319 233.270 C 186.787 233.738,186.836 236.358,186.393 237.218 C 185.677 238.607,184.200 238.190,183.918 236.519 C 183.472 233.876,184.939 231.890,186.319 233.270 M211.361 235.056 C 212.436 237.065,210.466 240.572,209.165 238.965 C 208.530 238.181,208.506 235.316,209.129 234.773 C 210.004 234.011,210.859 234.119,211.361 235.056 M197.725 241.718 C 198.166 242.390,198.017 246.257,197.528 246.856 C 196.460 248.163,195.510 246.834,195.602 244.161 C 195.701 241.265,196.686 240.132,197.725 241.718 M257.125 246.358 C 258.826 247.161,259.381 247.961,258.838 248.828 C 258.515 249.345,257.370 249.456,256.871 249.019 C 255.414 247.744,252.848 247.380,251.381 248.240 C 250.225 248.917,249.399 248.826,249.191 247.998 C 248.596 245.629,253.455 244.625,257.125 246.358 M193.005 251.172 C 194.718 253.006,197.359 253.501,198.912 252.280 C 200.486 251.042,201.771 252.675,200.302 254.049 C 198.157 256.055,194.015 255.541,191.702 252.981 C 190.672 251.841,190.639 251.683,191.294 251.028 C 191.935 250.387,192.301 250.418,193.005 251.172 M130.777 272.688 C 128.442 273.955,129.142 277.146,131.755 277.146 C 134.410 277.146,134.970 274.803,132.759 272.943 C 131.898 272.218,131.691 272.192,130.777 272.688 M217.775 277.064 C 210.315 279.095,198.999 279.170,191.576 277.236 C 189.981 276.821,190.091 276.713,190.255 278.516 L 190.389 280.002 192.232 280.866 C 200.591 284.787,216.840 283.040,218.686 278.021 C 219.209 276.600,219.265 276.659,217.775 277.064 M119.313 284.907 C 114.403 286.330,110.307 298.188,111.469 307.618 C 112.913 319.344,119.050 326.380,127.026 325.453 C 131.064 324.984,148.169 317.832,150.106 315.802 C 155.057 310.614,144.873 307.885,134.956 311.743 C 132.416 312.731,131.802 312.628,131.802 311.215 C 131.802 310.664,132.031 310.426,133.192 309.771 C 137.320 307.441,142.473 303.888,147.124 300.166 C 150.993 297.069,151.551 296.098,149.795 295.518 C 147.698 294.826,136.249 298.666,127.338 303.051 C 124.237 304.577,123.822 304.682,123.234 304.094 C 122.516 303.376,122.853 302.868,125.816 300.203 C 136.690 290.425,138.829 287.764,137.159 286.093 C 134.381 283.316,123.864 288.438,116.107 296.348 C 114.723 297.758,113.461 298.912,113.302 298.912 C 112.853 298.912,112.213 298.084,112.213 297.503 C 112.213 296.430,121.009 288.387,123.031 287.611 C 123.505 287.429,123.402 287.000,122.589 285.773 C 121.780 284.552,121.130 284.380,119.313 284.907 M25.676 399.940 C 39.864 399.974,63.153 399.974,77.429 399.940 C 91.705 399.905,80.097 399.877,51.632 399.877 C 23.168 399.877,11.488 399.905,25.676 399.940 " stroke="none" fill="#ebe7e4" fill-rule="evenodd"></path><path id="path3" d="M154.960 108.998 C 155.261 109.056,155.697 109.054,155.928 108.993 C 156.159 108.933,155.913 108.885,155.381 108.888 C 154.849 108.891,154.660 108.940,154.960 108.998 M148.126 112.213 C 148.781 112.878,149.371 113.422,149.438 113.422 C 149.504 113.422,149.023 112.878,148.368 112.213 C 147.713 111.548,147.122 111.004,147.056 111.004 C 146.989 111.004,147.471 111.548,148.126 112.213 M233.714 118.501 C 233.714 120.695,233.751 121.593,233.795 120.496 C 233.840 119.398,233.840 117.603,233.795 116.505 C 233.751 115.408,233.714 116.306,233.714 118.501 M146.408 118.984 C 146.408 120.913,146.446 121.702,146.492 120.738 C 146.537 119.773,146.537 118.195,146.492 117.231 C 146.446 116.267,146.408 117.056,146.408 118.984 M240.965 119.347 C 240.965 121.076,241.004 121.752,241.050 120.848 C 241.097 119.945,241.096 118.530,241.049 117.705 C 241.002 116.879,240.964 117.618,240.965 119.347 M158.944 118.501 C 158.944 118.966,158.993 119.157,159.054 118.924 C 159.115 118.691,159.115 118.310,159.054 118.077 C 158.993 117.845,158.944 118.035,158.944 118.501 M235.391 120.556 C 235.392 121.620,235.435 122.026,235.486 121.457 C 235.537 120.888,235.536 120.017,235.484 119.522 C 235.432 119.027,235.390 119.492,235.391 120.556 M197.882 165.200 C 187.367 166.423,177.457 171.189,169.589 178.807 C 167.417 180.910,167.294 181.171,168.197 181.762 C 168.787 182.149,168.838 182.129,170.555 180.825 C 190.364 165.783,222.016 170.840,235.402 191.186 C 239.279 197.080,239.857 197.767,241.510 198.458 C 244.123 199.550,246.925 197.853,246.911 195.188 C 246.896 192.392,245.626 189.585,242.497 185.427 C 231.428 170.723,214.884 163.223,197.882 165.200 M228.341 196.735 C 228.338 197.837,228.384 198.031,228.531 197.542 C 228.638 197.187,228.640 196.534,228.535 196.091 C 228.373 195.405,228.344 195.502,228.341 196.735 M158.712 224.667 C 158.712 225.266,158.759 225.511,158.816 225.212 C 158.874 224.912,158.874 224.423,158.816 224.123 C 158.759 223.824,158.712 224.069,158.712 224.667 M158.473 232.285 C 158.475 232.950,158.522 233.194,158.577 232.826 C 158.633 232.459,158.632 231.914,158.574 231.617 C 158.517 231.320,158.471 231.620,158.473 232.285 M169.649 233.227 C 166.677 234.162,162.582 237.795,161.437 240.513 C 160.967 241.628,160.612 244.898,160.986 244.667 C 161.895 244.105,162.615 245.924,161.730 246.544 L 161.186 246.925 161.897 248.284 C 165.287 254.757,176.183 255.458,180.638 249.489 C 186.472 241.674,178.815 230.343,169.649 233.227 M237.788 235.187 C 237.790 235.719,237.840 235.909,237.898 235.608 C 237.956 235.307,237.953 234.872,237.893 234.640 C 237.832 234.409,237.785 234.655,237.788 235.187 M258.102 235.475 C 258.334 235.536,258.715 235.536,258.948 235.475 C 259.181 235.414,258.990 235.364,258.525 235.364 C 258.059 235.364,257.869 235.414,258.102 235.475 M222.249 236.633 C 221.651 236.827,220.399 237.587,219.468 238.324 C 218.537 239.060,217.417 239.943,216.980 240.285 C 211.382 244.659,213.685 254.372,220.824 256.501 C 227.757 258.568,235.084 254.243,235.914 247.594 L 236.085 246.224 234.669 246.806 C 232.902 247.533,231.668 247.571,231.075 246.916 C 230.341 246.104,230.912 245.224,232.171 245.224 C 232.713 245.224,233.504 245.045,233.930 244.827 C 234.861 244.349,235.942 243.531,235.642 243.531 C 235.523 243.531,235.179 242.992,234.878 242.334 C 232.869 237.956,226.733 235.186,222.249 236.633 M237.788 237.122 C 237.790 237.654,237.840 237.843,237.898 237.543 C 237.956 237.242,237.953 236.806,237.893 236.575 C 237.832 236.344,237.785 236.590,237.788 237.122 M169.866 238.029 C 170.254 238.650,169.759 239.299,168.897 239.299 C 168.173 239.299,167.858 238.648,168.178 237.814 C 168.363 237.331,169.521 237.479,169.866 238.029 M177.389 238.211 C 177.994 238.880,177.555 239.903,176.663 239.903 C 175.770 239.903,175.331 238.880,175.936 238.211 C 176.177 237.945,176.504 237.727,176.663 237.727 C 176.821 237.727,177.148 237.945,177.389 238.211 M158.460 238.936 C 158.460 239.401,158.510 239.592,158.571 239.359 C 158.631 239.126,158.631 238.745,158.571 238.513 C 158.510 238.280,158.460 238.470,158.460 238.936 M228.553 241.846 C 229.238 242.213,229.161 243.235,228.423 243.572 C 227.695 243.903,227.086 243.508,227.086 242.703 C 227.086 241.759,227.709 241.395,228.553 241.846 M172.526 242.624 C 172.914 243.245,172.419 243.894,171.558 243.894 C 170.833 243.894,170.518 243.243,170.838 242.409 C 171.023 241.926,172.181 242.074,172.526 242.624 M217.912 243.298 C 218.463 243.592,218.530 244.556,218.029 244.972 C 217.156 245.696,215.928 244.514,216.583 243.580 C 217.001 242.984,217.233 242.934,217.912 243.298 M180.167 243.890 C 180.537 244.337,180.306 245.361,179.791 245.559 C 179.213 245.781,178.476 245.276,178.476 244.659 C 178.476 243.634,179.549 243.147,180.167 243.890 M224.037 245.284 C 224.426 245.905,223.931 246.554,223.069 246.554 C 222.345 246.554,222.029 245.903,222.350 245.069 C 222.535 244.586,223.693 244.734,224.037 245.284 M197.638 245.707 C 197.638 246.173,197.687 246.363,197.748 246.131 C 197.809 245.898,197.809 245.517,197.748 245.284 C 197.687 245.051,197.638 245.242,197.638 245.707 M167.154 246.069 C 167.444 246.706,166.914 247.642,166.264 247.642 C 166.105 247.642,165.778 247.424,165.537 247.157 C 164.932 246.488,165.371 245.466,166.264 245.466 C 166.685 245.466,166.965 245.656,167.154 246.069 M173.637 248.485 C 174.041 248.972,173.753 249.992,173.158 250.181 C 172.213 250.481,171.514 249.473,172.093 248.647 C 172.517 248.042,173.209 247.970,173.637 248.485 M229.735 248.959 C 230.320 249.664,229.950 250.423,229.021 250.423 C 228.321 250.423,228.160 250.327,228.095 249.866 C 228.000 249.198,228.434 248.609,229.021 248.609 C 229.254 248.609,229.576 248.767,229.735 248.959 M218.573 250.109 C 219.302 250.838,218.579 251.916,217.536 251.655 C 216.942 251.506,216.652 250.418,217.090 249.980 C 217.353 249.717,218.260 249.796,218.573 250.109 M224.521 251.572 C 224.910 252.193,224.415 252.842,223.553 252.842 C 222.828 252.842,222.513 252.191,222.833 251.357 C 223.018 250.874,224.176 251.022,224.521 251.572 M138.573 263.272 C 128.885 264.526,124.431 269.566,124.131 279.614 L 124.003 283.895 124.673 285.055 C 125.041 285.693,125.370 286.249,125.404 286.291 C 125.437 286.333,126.247 285.973,127.205 285.491 C 133.733 282.203,137.761 282.243,139.495 285.613 C 140.754 288.057,139.915 289.621,134.475 294.973 L 130.230 299.149 133.173 297.956 C 147.410 292.183,153.050 291.810,152.912 296.649 C 152.861 298.449,148.405 302.550,141.653 307.012 C 140.886 307.518,140.288 307.956,140.323 307.984 C 140.358 308.011,141.312 307.933,142.443 307.810 C 150.284 306.957,154.966 310.084,153.197 314.994 C 153.006 315.526,152.847 315.984,152.845 316.011 C 152.804 316.570,158.018 313.760,159.450 312.451 C 163.154 309.066,163.473 305.415,161.164 292.819 C 157.311 271.800,154.292 262.310,151.870 263.606 C 151.535 263.785,150.799 263.783,149.397 263.600 C 147.222 263.317,139.935 263.096,138.573 263.272 M133.978 270.893 C 136.150 272.116,137.139 275.511,135.868 277.382 C 134.369 279.589,131.274 280.223,129.112 278.766 C 124.470 275.638,129.101 268.146,133.978 270.893 M174.431 281.983 C 174.431 282.582,174.478 282.826,174.536 282.527 C 174.593 282.228,174.593 281.738,174.536 281.439 C 174.478 281.140,174.431 281.385,174.431 281.983 M203.083 285.305 C 203.782 285.354,204.924 285.354,205.623 285.305 C 206.321 285.256,205.750 285.216,204.353 285.216 C 202.956 285.216,202.385 285.256,203.083 285.305 M208.767 286.215 C 208.770 286.747,208.819 286.936,208.877 286.636 C 208.935 286.335,208.933 285.899,208.872 285.668 C 208.812 285.437,208.764 285.683,208.767 286.215 M211.197 290.447 C 211.197 291.179,211.242 291.478,211.298 291.112 C 211.353 290.747,211.353 290.148,211.298 289.782 C 211.242 289.417,211.197 289.716,211.197 290.447 M209.023 291.294 C 209.024 292.092,209.069 292.389,209.123 291.955 C 209.177 291.520,209.176 290.867,209.121 290.504 C 209.066 290.140,209.022 290.496,209.023 291.294 M133.482 293.047 L 132.648 293.954 133.555 293.121 C 134.399 292.345,134.573 292.140,134.388 292.140 C 134.348 292.140,133.940 292.548,133.482 293.047 M211.441 295.889 C 211.443 296.687,211.488 296.984,211.542 296.549 C 211.595 296.115,211.594 295.462,211.539 295.098 C 211.484 294.735,211.440 295.091,211.441 295.889 M209.265 296.856 C 209.266 297.654,209.311 297.951,209.365 297.517 C 209.419 297.082,209.418 296.429,209.363 296.066 C 209.307 295.702,209.263 296.058,209.265 296.856 M128.522 297.763 L 127.811 298.549 128.597 297.839 C 129.030 297.448,129.383 297.094,129.383 297.053 C 129.383 296.866,129.184 297.030,128.522 297.763 M211.683 301.209 C 211.685 302.007,211.730 302.305,211.783 301.870 C 211.837 301.435,211.836 300.782,211.781 300.419 C 211.726 300.055,211.682 300.411,211.683 301.209 M209.504 301.814 C 209.504 302.545,209.549 302.845,209.605 302.479 C 209.660 302.113,209.660 301.515,209.605 301.149 C 209.549 300.783,209.504 301.082,209.504 301.814 M108.883 303.990 C 108.883 304.456,108.933 304.646,108.994 304.414 C 109.055 304.181,109.055 303.800,108.994 303.567 C 108.933 303.334,108.883 303.525,108.883 303.990 M222.348 307.739 C 222.348 310.000,222.384 310.958,222.429 309.867 C 222.474 308.776,222.474 306.926,222.429 305.756 C 222.385 304.585,222.348 305.478,222.348 307.739 M211.925 306.530 C 211.926 307.328,211.972 307.625,212.025 307.190 C 212.079 306.756,212.078 306.103,212.023 305.739 C 211.968 305.376,211.924 305.732,211.925 306.530 M209.746 306.892 C 209.746 307.624,209.791 307.923,209.847 307.557 C 209.902 307.192,209.902 306.593,209.847 306.227 C 209.791 305.862,209.746 306.161,209.746 306.892 M143.712 309.972 C 144.344 310.022,145.378 310.022,146.010 309.972 C 146.641 309.922,146.125 309.882,144.861 309.882 C 143.597 309.882,143.080 309.922,143.712 309.972 M212.164 311.729 C 212.164 312.461,212.210 312.760,212.265 312.394 C 212.321 312.028,212.321 311.430,212.265 311.064 C 212.210 310.698,212.164 310.998,212.164 311.729 M209.988 311.971 C 209.988 312.703,210.033 313.002,210.089 312.636 C 210.144 312.270,210.144 311.672,210.089 311.306 C 210.033 310.940,209.988 311.239,209.988 311.971 M220.134 313.301 C 220.136 313.833,220.186 314.022,220.244 313.721 C 220.301 313.421,220.299 312.985,220.239 312.754 C 220.178 312.523,220.131 312.769,220.134 313.301 M222.547 315.840 C 222.547 316.306,222.597 316.496,222.658 316.264 C 222.718 316.031,222.718 315.650,222.658 315.417 C 222.597 315.184,222.547 315.375,222.547 315.840 M210.230 317.050 C 210.230 317.781,210.275 318.080,210.330 317.715 C 210.386 317.349,210.386 316.750,210.330 316.385 C 210.275 316.019,210.230 316.318,210.230 317.050 M212.395 316.687 C 212.397 317.219,212.447 317.408,212.505 317.107 C 212.563 316.806,212.560 316.371,212.500 316.140 C 212.439 315.909,212.392 316.155,212.395 316.687 M212.637 322.007 C 212.639 322.539,212.689 322.728,212.747 322.428 C 212.804 322.127,212.802 321.692,212.742 321.460 C 212.681 321.229,212.634 321.475,212.637 322.007 M146.157 326.723 C 146.157 327.987,146.198 328.504,146.248 327.872 C 146.298 327.240,146.298 326.206,146.248 325.574 C 146.198 324.943,146.157 325.459,146.157 326.723 M204.907 325.693 C 205.811 325.740,207.225 325.740,208.051 325.693 C 208.877 325.646,208.138 325.607,206.409 325.608 C 204.680 325.608,204.004 325.647,204.907 325.693 M116.864 327.690 C 116.864 328.156,116.914 328.346,116.974 328.114 C 117.035 327.881,117.035 327.500,116.974 327.267 C 116.914 327.034,116.864 327.225,116.864 327.690 M124.249 327.866 C 124.683 327.920,125.336 327.918,125.700 327.863 C 126.063 327.808,125.707 327.764,124.909 327.765 C 124.111 327.767,123.814 327.812,124.249 327.866 M128.472 328.658 C 128.472 329.123,128.522 329.314,128.583 329.081 C 128.643 328.848,128.643 328.467,128.583 328.235 C 128.522 328.002,128.472 328.192,128.472 328.658 M148.061 329.867 C 148.061 330.333,148.111 330.523,148.172 330.290 C 148.232 330.057,148.232 329.677,148.172 329.444 C 148.111 329.211,148.061 329.401,148.061 329.867 M119.282 330.593 C 119.282 331.058,119.332 331.248,119.393 331.016 C 119.454 330.783,119.454 330.402,119.393 330.169 C 119.332 329.937,119.282 330.127,119.282 330.593 M144.079 330.526 C 144.514 330.580,145.167 330.579,145.530 330.523 C 145.894 330.468,145.538 330.424,144.740 330.426 C 143.942 330.427,143.645 330.472,144.079 330.526 M138.755 330.767 C 139.187 330.821,139.894 330.821,140.326 330.767 C 140.759 330.714,140.405 330.670,139.541 330.670 C 138.676 330.670,138.322 330.714,138.755 330.767 M134.406 331.010 C 134.840 331.063,135.493 331.062,135.857 331.007 C 136.220 330.952,135.865 330.908,135.067 330.909 C 134.268 330.911,133.971 330.956,134.406 331.010 M122.554 331.489 C 122.855 331.547,123.290 331.545,123.522 331.484 C 123.753 331.424,123.507 331.376,122.975 331.379 C 122.443 331.382,122.253 331.431,122.554 331.489 M144.317 332.705 C 145.015 332.754,146.158 332.754,146.856 332.705 C 147.554 332.657,146.983 332.617,145.586 332.617 C 144.190 332.617,143.619 332.657,144.317 332.705 M139.117 332.942 C 139.483 332.998,140.082 332.998,140.447 332.942 C 140.813 332.887,140.514 332.842,139.782 332.842 C 139.051 332.842,138.752 332.887,139.117 332.942 M133.680 333.186 C 134.115 333.240,134.768 333.239,135.131 333.184 C 135.495 333.129,135.139 333.084,134.341 333.086 C 133.543 333.087,133.246 333.132,133.680 333.186 M128.597 333.423 C 128.897 333.481,129.386 333.481,129.686 333.423 C 129.985 333.366,129.740 333.319,129.141 333.319 C 128.543 333.319,128.298 333.366,128.597 333.423 M123.398 333.661 C 123.631 333.722,124.011 333.722,124.244 333.661 C 124.477 333.600,124.287 333.551,123.821 333.551 C 123.356 333.551,123.165 333.600,123.398 333.661 M118.077 333.903 C 118.310 333.964,118.691 333.964,118.924 333.903 C 119.157 333.842,118.966 333.793,118.501 333.793 C 118.035 333.793,117.845 333.842,118.077 333.903 M269.891 335.067 C 270.614 335.798,271.259 336.397,271.326 336.397 C 271.392 336.397,270.855 335.798,270.133 335.067 C 269.411 334.335,268.765 333.736,268.699 333.736 C 268.632 333.736,269.169 334.335,269.891 335.067 M112.273 334.145 C 112.506 334.206,112.887 334.206,113.120 334.145 C 113.352 334.084,113.162 334.034,112.696 334.034 C 112.231 334.034,112.041 334.084,112.273 334.145 M104.530 343.168 C 104.530 343.634,104.580 343.824,104.641 343.591 C 104.702 343.359,104.702 342.978,104.641 342.745 C 104.580 342.512,104.530 342.703,104.530 343.168 M104.777 346.433 C 104.780 346.965,104.829 347.154,104.887 346.853 C 104.945 346.552,104.943 346.117,104.882 345.886 C 104.821 345.655,104.774 345.901,104.777 346.433 M149.754 348.489 C 149.754 348.954,149.804 349.144,149.864 348.912 C 149.925 348.679,149.925 348.298,149.864 348.065 C 149.804 347.833,149.754 348.023,149.754 348.489 M151.689 350.423 C 151.689 350.889,151.738 351.079,151.799 350.846 C 151.860 350.614,151.860 350.233,151.799 350.000 C 151.738 349.767,151.689 349.958,151.689 350.423 M151.447 353.567 C 151.447 354.033,151.496 354.223,151.557 353.990 C 151.618 353.758,151.618 353.377,151.557 353.144 C 151.496 352.911,151.447 353.102,151.447 353.567 M149.283 354.655 C 149.285 355.320,149.332 355.564,149.388 355.196 C 149.443 354.829,149.442 354.284,149.384 353.987 C 149.327 353.690,149.281 353.990,149.283 354.655 M151.224 357.316 C 151.225 358.114,151.270 358.411,151.324 357.976 C 151.378 357.542,151.377 356.889,151.322 356.525 C 151.266 356.162,151.222 356.518,151.224 357.316 M149.041 359.008 C 149.043 359.674,149.090 359.917,149.146 359.549 C 149.201 359.182,149.200 358.638,149.142 358.340 C 149.085 358.043,149.040 358.343,149.041 359.008 M290.923 360.278 L 289.601 361.669 290.992 360.347 C 291.756 359.620,292.382 358.994,292.382 358.956 C 292.382 358.777,292.151 358.986,290.923 360.278 M151.002 364.692 C 151.002 366.487,151.040 367.222,151.086 366.324 C 151.133 365.426,151.133 363.957,151.086 363.059 C 151.040 362.161,151.002 362.896,151.002 364.692 M148.830 368.924 C 148.831 371.318,148.867 372.265,148.911 371.028 C 148.955 369.791,148.954 367.832,148.910 366.675 C 148.866 365.517,148.830 366.530,148.830 368.924 M150.996 372.914 C 150.996 374.311,151.036 374.882,151.085 374.184 C 151.134 373.485,151.134 372.343,151.085 371.644 C 151.036 370.946,150.996 371.518,150.996 372.914 M149.050 378.718 C 149.050 379.583,149.093 379.937,149.147 379.504 C 149.201 379.072,149.201 378.365,149.147 377.932 C 149.093 377.500,149.050 377.854,149.050 378.718 M151.218 379.807 C 151.220 380.472,151.267 380.715,151.322 380.347 C 151.378 379.980,151.376 379.436,151.319 379.138 C 151.262 378.841,151.216 379.141,151.218 379.807 M149.275 382.950 C 149.278 383.482,149.327 383.672,149.385 383.371 C 149.443 383.070,149.441 382.635,149.380 382.403 C 149.320 382.172,149.272 382.418,149.275 382.950 M151.452 383.918 C 151.454 384.450,151.504 384.639,151.562 384.338 C 151.619 384.037,151.617 383.602,151.557 383.371 C 151.496 383.140,151.449 383.386,151.452 383.918 M149.512 386.457 C 149.512 386.923,149.562 387.113,149.623 386.880 C 149.683 386.648,149.683 386.267,149.623 386.034 C 149.562 385.801,149.512 385.992,149.512 386.457 M151.689 386.941 C 151.689 387.406,151.738 387.597,151.799 387.364 C 151.860 387.131,151.860 386.750,151.799 386.518 C 151.738 386.285,151.689 386.475,151.689 386.941 M107.437 388.755 C 107.440 389.287,107.489 389.476,107.547 389.175 C 107.605 388.874,107.603 388.439,107.542 388.208 C 107.482 387.976,107.434 388.222,107.437 388.755 M107.679 392.382 C 107.682 392.914,107.731 393.103,107.789 392.803 C 107.847 392.502,107.845 392.066,107.784 391.835 C 107.724 391.604,107.676 391.850,107.679 392.382 M107.926 396.131 C 107.926 396.729,107.973 396.974,108.030 396.675 C 108.088 396.375,108.088 395.886,108.030 395.586 C 107.973 395.287,107.926 395.532,107.926 396.131 M105.700 398.972 C 105.767 399.681,106.134 400.076,106.150 399.456 C 106.159 399.090,106.058 398.791,105.925 398.791 C 105.792 398.791,105.691 398.872,105.700 398.972 " stroke="none" fill="#e17475" fill-rule="evenodd"></path><path id="path4" d="M117.321 105.363 C 116.283 105.885,115.601 106.998,115.599 108.169 C 115.599 108.913,115.439 109.224,114.743 109.835 C 111.950 112.287,111.572 115.018,113.207 120.936 C 114.479 125.540,114.587 127.543,113.679 129.688 C 112.849 131.647,112.971 131.673,117.412 130.484 L 121.282 129.448 121.585 130.323 C 122.729 133.621,126.883 132.237,125.906 128.883 L 125.725 128.262 129.546 127.241 C 134.001 126.052,134.169 125.947,133.011 125.074 C 130.526 123.200,129.935 122.100,128.536 116.749 C 127.052 111.070,125.404 108.753,122.456 108.200 C 121.928 108.101,121.644 107.909,121.644 107.651 C 121.639 105.844,119.070 104.483,117.321 105.363 " stroke="none" fill="#fcdb58" fill-rule="evenodd"></path></g></svg>